<?xml version="1.0" encoding="utf-8"?>
<!-- Generator: Adobe Illustrator 25.2.3, SVG Export Plug-In . SVG Version: 6.00 Build 0)  -->
<svg version="1.1" id="图层_1" xmlns="http://www.w3.org/2000/svg" xmlns:xlink="http://www.w3.org/1999/xlink" x="0px" y="0px"
	 viewBox="0 0 192 192" style="enable-background:new 0 0 192 192;" xml:space="preserve">
<style type="text/css">
	.st0{fill:url(#SVGID_1_);}
	.st1{fill:#001424;}
	.st2{fill:#BDBEBF;}
	.st3{fill:#FFFFFF;}
	.st4{fill:url(#SVGID_2_);}
	.st5{fill:url(#SVGID_3_);}
	.st6{fill:#F9F9F9;}
	.st7{fill:url(#SVGID_4_);}
	.st8{fill:url(#SVGID_5_);}
	.st9{fill:url(#SVGID_6_);}
	.st10{fill:url(#SVGID_7_);}
	.st11{fill:url(#SVGID_8_);}
	.st12{fill:#FDFDFD;}
	.st13{fill:url(#SVGID_9_);}
	.st14{fill:url(#SVGID_10_);}
	.st15{fill:url(#SVGID_11_);}
	.st16{fill:url(#SVGID_12_);}
	.st17{clip-path:url(#SVGID_14_);fill:#BDBEBF;}
	.st18{clip-path:url(#SVGID_16_);fill:#FFFFFF;}
	.st19{clip-path:url(#SVGID_18_);fill:#BDBEBF;}
	.st20{clip-path:url(#SVGID_20_);fill:#FFFFFF;}
	.st21{clip-path:url(#SVGID_22_);fill:#BDBEBF;}
	.st22{clip-path:url(#SVGID_24_);fill:#FFFFFF;}
	.st23{clip-path:url(#SVGID_26_);fill:#BDBEBF;}
	.st24{clip-path:url(#SVGID_28_);fill:#FFFFFF;}
	.st25{clip-path:url(#SVGID_30_);fill:#BDBEBF;}
	.st26{clip-path:url(#SVGID_32_);fill:#FFFFFF;}
	.st27{clip-path:url(#SVGID_34_);fill:#BDBEBF;}
	.st28{clip-path:url(#SVGID_36_);fill:#FFFFFF;}
	.st29{clip-path:url(#SVGID_38_);fill:#BDBEBF;}
	.st30{clip-path:url(#SVGID_40_);fill:#FFFFFF;}
	.st31{clip-path:url(#SVGID_42_);fill:#BDBEBF;}
	.st32{clip-path:url(#SVGID_44_);fill:#FFFFFF;}
</style>
<g>
	
		<radialGradient id="SVGID_1_" cx="96" cy="98" r="82.5128" gradientTransform="matrix(1 0 0 -1 0 194)" gradientUnits="userSpaceOnUse">
		<stop  offset="0" style="stop-color:#FFFFFF"/>
		<stop  offset="0.5" style="stop-color:#FFD700"/>
		<stop  offset="1" style="stop-color:#CEA507"/>
	</radialGradient>
	<path class="st0" d="M95.25,178.46l-0.71-0.33c-2.36-1.1-8.74-5.49-18.95-13.04c-2.69,1.24-6.17,1.05-8.47,0.28
		c-3.31-1.11-3.97-4.68-4.23-7.06c-1.37-0.98-2.26-3.24-2.65-4.77c-2.66-2.03-4.97-3.8-6.65-5.09
		c-10.11-4.37-17.75-14.38-18.08-14.81l-1.85-2.45l1.23,0.12c-0.69-0.08-1.11-0.14-1.19-0.15l-0.48-0.07l-0.33-0.35
		c-7.18-7.8-11.3-20.25-11.47-20.78l-1.18-3.62l3.2,2.06c1.7,1.1,3.74,1.9,5.77,2.48c-3.61-2.06-7.21-4.77-8.63-7.91
		c-0.5-1.12-0.92-2.43-1.26-3.92l-5.89-0.86l10.73-39.73l0.89-0.13c0.05-0.01,5.36-0.75,13.29-1.73V45.75h6.68l2.57,2.09h2.21
		l1.32,2.33l0.32,0.03V39.78l0.99-0.95v-3.76h6.09l2.56,2.09v2.39h0.44v5.57l0.71-0.16v-1.47l2.33-1.43h4.6v0.95h1.4v2.33h1.46v2.3
		l1.17,0.77v4.67c0.42-0.03,0.83-0.07,1.25-0.1V40.04h1.53V37.9h2.97v1.27l0.85,0.6l4.63,2.47v6.24h1.69v1.94h0.41v1.82
		c0.04,0,0.08,0,0.11-0.01c-0.04-10.73,0.09-23.52,1.25-30.73l0.08-0.53l0.43-0.33c0.9-0.69,7.02-5.22,8.66-6.42l0.91-0.67
		l0.82,0.77c1.79,1.69,2.27,8.97,2.15,33.63h0.01v-1.07h0.92v-0.89h0.95v-0.95h3.66v0.95h1.01v0.89h0.72v1.07h0.36V31.87h1.39v-1.43
		h0.77v-2.96h3.08v2.96h0.77v1.43h1.22v-0.06h1.04v-1.43h0.67v-2.9h3.08v2.9h0.93v1.43h0.83v16.13h3.95l1.9-5.01h4.59l0.86,3.18
		h2.95l-0.18-8.69h4.44v4.35h5.04v9.63h0.67l2.8-3.99v-1.85h4.32v0.61h2.57l2.42,3.55l-0.01,7.48c4.8,0.66,7.78,1.13,7.81,1.13
		l0.86,0.14l11.28,39.71l-8.99,1.32c-0.32,1.29-0.71,2.45-1.16,3.45c-1.41,3.15-5.01,5.86-8.63,7.9c2.03-0.59,4.06-1.38,5.76-2.48
		l3.2-2.06l-1.18,3.62c-0.17,0.53-4.29,12.97-11.47,20.78l-0.33,0.35l-0.48,0.07c-0.08,0.01-0.5,0.07-1.19,0.15l1.23-0.12
		l-1.85,2.45c-0.2,0.26-4.07,5.34-9.91,9.87h1.05l-21.35,15.11c-0.05,0.99-0.48,1.98-1.28,2.9c-1.68,1.95-4.9,3.38-7.67,3.43
		L95.25,178.46z M75.78,161.85l0.74,0.55c11.5,8.53,16.42,11.78,18.48,12.92l18.53-13.11l0.46,0.02c2.05,0.09,4.74-1.04,5.99-2.48
		c0.33-0.39,0.71-0.97,0.6-1.55l-0.17-0.86l15.69-11.1l-1.53,0.01l4.01-2.51c4.76-2.99,8.69-6.98,10.88-9.45
		c-6.28-0.14-11.88-2.27-12.16-2.38l-7.81-3.02l8.36,0.4c7.25,0.35,14.68-0.5,16.61-0.75c4.47-5.01,7.72-12.11,9.35-16.19
		c-6.1,2.55-13.3,2.78-13.66,2.79l-8.95,0.25l8.47-2.88c3.78-1.28,14.07-5.7,16.29-10.64c0.47-1.06,0.87-2.34,1.18-3.82l0.2-0.92
		l7.78-1.15l-9.96-35.07c-1.34-0.2-4.21-0.62-8.08-1.15l-1.17-0.16l0.01-9.02l-1.14-1.67h-3.18l-3.67,5.23h-4.79v-9.64h-3.91
		l0.11,5.54h-3.3v-1.19h-4.5l-0.86-3.18h-0.65l-1.07,2.81v2.2h-9.35V34.52h-1.14v16.13h-5.15V34.58h-2.06v16.07h-5.78v-1.07h-0.72
		v-0.89h-0.19v0.89h-0.92v1.07H98.2l0.01-1.36c0.05-9.05,0.15-26.89-0.92-31.89c-2.11,1.55-5.5,4.07-6.82,5.05
		c-1.1,7.42-1.18,20.45-1.13,31.05l0.01,1.31l-1.31,0.05c-0.93,0.04-1.86,0.08-2.81,0.13l-1.42,0.07v-1.95h-2.1v-9.26l-2.09-1.12
		h-2.47v12.75l-1.25,0.09c-1.31,0.1-2.63,0.2-3.95,0.3L70.48,56v-6.14l-1.17-0.77v-1.05h-1.46v-2.33h-1.4v-0.95h-1.13L64.93,45v2.12
		l-1.43,0.33v2.54h-0.81v2.21h-2.63l-1.25-1.56v-8.38h-0.44v-3.82l-0.82-0.66h-2.42v2.21l-0.99,0.95v12.21l-4.68-0.39l-1.25-2.21
		h-1.6l-2.57-2.09h-3.01v10.56l-1.19,0.14c-6.63,0.8-11.61,1.47-13.55,1.74l-9.47,35.05l4.77,0.68l0.18,0.95
		c0.32,1.67,0.75,3.12,1.27,4.27c2.22,4.95,12.51,9.36,16.29,10.64l8.47,2.88l-8.95-0.25c-0.36-0.01-7.57-0.24-13.66-2.79
		c1.64,4.08,4.89,11.17,9.35,16.19c1.93,0.24,9.37,1.1,16.61,0.75l8.36-0.4l-7.81,3.02c-0.27,0.11-5.87,2.24-12.15,2.38
		c2.83,3.18,8.54,8.91,15.23,11.76l0.16,0.07l0.14,0.11c1.77,1.36,4.26,3.27,7.16,5.49l0.41,0.31l0.11,0.5
		c0.38,1.88,1.3,3.39,1.69,3.62l0.95,0.18l0.1,1.01c0.23,2.44,0.62,4.87,2.47,5.49c1.97,0.66,5.1,0.73,7.01-0.46L75.78,161.85z
		 M64.49,156.12L64.49,156.12L64.49,156.12z"/>
	<path class="st1" d="M165.17,60.89c-1.34-0.2-4.21-0.62-8.08-1.15l-1.17-0.16l0.01-9.02l-1.14-1.67h-3.18l-3.67,5.23h-4.79v-9.64
		h-3.91l0.11,5.54h-3.3v-1.19h-4.5l-0.86-3.18h-0.65l-1.07,2.81v2.2h-9.35V34.52h-1.14v16.13h-5.15V34.58h-2.06v16.07h-5.78v-1.07
		h-0.72v-0.89h-0.19v0.89h-0.92v1.07H98.2l0.01-1.36c0.05-9.05,0.15-26.89-0.92-31.89c-2.11,1.55-5.5,4.07-6.82,5.05
		c-1.1,7.42-1.18,20.45-1.13,31.05l0.01,1.31l-1.31,0.05c-0.93,0.04-1.86,0.08-2.81,0.13l-1.42,0.07v-1.95h-2.1v-9.26l-2.09-1.12
		h-2.47v12.75l-1.25,0.09c-1.31,0.1-2.63,0.2-3.95,0.3L70.48,56v-6.14l-1.17-0.77v-1.05h-1.46v-2.33h-1.4v-0.95h-1.13L64.93,45v2.12
		l-1.43,0.33v2.54h-0.81v2.21h-2.63l-1.25-1.56v-8.38h-0.44v-3.82l-0.82-0.66h-2.42v2.21l-0.99,0.95v12.21l-4.68-0.39l-1.25-2.21
		h-1.6l-2.57-2.09h-3.01v10.56l-1.19,0.14c-6.63,0.8-11.61,1.47-13.55,1.74l-9.47,35.05l4.77,0.68l0.18,0.95
		c0.32,1.67,0.75,3.12,1.27,4.27c2.22,4.95,12.51,9.36,16.29,10.64l8.47,2.88l-8.95-0.25c-0.36-0.01-7.57-0.24-13.66-2.79
		c1.64,4.08,4.89,11.17,9.35,16.19c1.93,0.24,9.37,1.1,16.61,0.75l8.36-0.4l-7.81,3.02c-0.27,0.11-5.87,2.24-12.15,2.38
		c2.83,3.18,8.54,8.91,15.23,11.76l0.16,0.07l0.14,0.11c1.77,1.36,4.26,3.27,7.16,5.49l0.41,0.31l0.11,0.5
		c0.38,1.88,1.3,3.39,1.69,3.62l0.95,0.18l0.1,1.01c0.23,2.44,0.62,4.87,2.47,5.49c1.97,0.66,5.1,0.73,7.01-0.46l0.8-0.5l0.74,0.55
		c11.5,8.53,16.42,11.78,18.48,12.92l18.53-13.11l0.46,0.02c2.05,0.09,4.74-1.04,5.99-2.48c0.33-0.39,0.71-0.97,0.6-1.55l-0.17-0.86
		l15.69-11.1l-1.53,0.01l4.01-2.51c4.76-2.99,8.69-6.98,10.88-9.45c-6.28-0.14-11.88-2.27-12.16-2.38l-7.81-3.02l8.36,0.4
		c7.25,0.35,14.68-0.5,16.61-0.75c4.47-5.01,7.72-12.11,9.35-16.19c-6.1,2.55-13.3,2.78-13.66,2.79l-8.95,0.25l8.47-2.88
		c3.78-1.28,14.07-5.7,16.29-10.64c0.47-1.06,0.87-2.34,1.18-3.82l0.2-0.92l7.78-1.15L165.17,60.89z"/>
	<g>
		<path class="st2" d="M58.31,94.17l-5.45,1.53l-1.98-7.03l5.67-1.59l0.26,0.92L53,89.06l0.58,2.06l3.63-1.02l0.26,0.9l-3.63,1.02
			l0.62,2.22l3.97-1.12L58.31,94.17z"/>
		<path class="st2" d="M60.38,91.37l-0.24-0.94l2.76-0.7l0.24,0.94L60.38,91.37z"/>
		<path class="st2" d="M67.01,87.66l0.26,1.15l3.44-0.77L71.37,91l-5.07,1.14l-0.54-0.79l3.66-0.82l-0.27-1.21l-3.49,0.78L65,87.18
			L70.27,86l0.2,0.88L67.01,87.66z"/>
		<path class="st2" d="M76.31,90.04l-0.69-0.65l0.5,2.7l-1.79,0.33l-1.28-6.98l1.79-0.33l0.14,0.73l0.34-0.81l3.06-0.56l0.92,5.03
			L76.31,90.04z M76.74,85.67l-1.73,0.32l0.59,3.24l1.73-0.32L76.74,85.67z"/>
		<path class="st2" d="M81.86,89.09l-0.68-5.08l5.37-0.72l0.68,5.07L81.86,89.09z M84.86,84.44l-1.73,0.23l0.44,3.3l1.73-0.23
			L84.86,84.44z"/>
		<path class="st2" d="M91.41,83.77l0.32,4.19l-1.88,0.14l-0.39-5.11l1.88-0.14l0.06,0.75l0.51-0.8l1.82-0.14l0.07,0.92L91.41,83.77
			z"/>
		<path class="st2" d="M100.33,87.63l-3.03,0.04l-0.05-4.21l-0.99,0.01l-0.01-0.9l0.99-0.01l-0.02-1.69l1.84-0.02l0.02,1.68
			l1.39-0.02l0.01,0.9l-1.39,0.02l0.04,3.33l1.59-0.02L100.33,87.63z"/>
		<path class="st2" d="M105.25,83.57l-0.07,1.18l3.52,0.21l-0.18,3.04l-5.19-0.31l-0.3-0.91l3.74,0.23l0.08-1.23l-3.57-0.21l0.17-3
			l5.4,0.32l-0.05,0.9L105.25,83.57z"/>
		<path class="st2" d="M120.57,89.59l-4.95-0.79l0.8-5.05l5.17,0.83l-0.14,0.89l-3.38-0.54l-0.52,3.25l3.53,0.56L120.57,89.59z"/>
		<path class="st2" d="M123.73,90.19l1.46-7.16l1.85,0.38l-1.46,7.16L123.73,90.19z"/>
		<path class="st2" d="M131.93,92.06l0.18-0.74l-0.62,0.64l-3.05-0.76l1.23-4.97l1.76,0.44l-1.01,4.07l1.71,0.43l1.01-4.07
			l1.79,0.44l-1.23,4.97L131.93,92.06z"/>
		<path class="st2" d="M138.51,93.85l-0.29-0.87L138,93.69l-1.74-0.52l2.09-6.99l1.75,0.52l-0.84,2.82l0.78-0.56l2.92,0.87
			l-1.46,4.9L138.51,93.85z M140.92,90.19l-1.73-0.52l-0.94,3.15l1.73,0.52L140.92,90.19z"/>
	</g>
	<g>
		<g>
			<path class="st1" d="M56.02,96.69c0,0,4.15,25.12,6.37,26.8c1.18,1.19,1.93,2.75,2.82,4.17c-0.89,0.43-1.97,0.69-2.55,1.61
				c-1.24,5.52,10.46,15.43,11.85,17.65c0.26,0.45-3.68,1.1-5.56,1.76c-0.32,0.11-1.8-0.83-2.74-0.74
				c-1.53,0.13-3.11,0.44-4.13,2.85c-0.65,1.55,1.07,6.55,2.69,6.85c0.2,2.15,0.54,5.64,3.36,6.59c2.74,0.92,7.72,0.93,9.65-2.11
				c1.59-2.5,0.68-3.87,0.94-3.96c1.17-0.33,2.74-0.29,3.72-1.67c1.91-2.68,10.38-3.65,10.38-3.65l11.16,2.72
				c0,0,1.46,2.46,1.96,2.63c0.65,0.22,1.96,0.05,1.96,0.05s1.67,3.99,4.46,5.14c3.54,1.46,10.55-1.97,9.53-5.49
				c2.12-1.32,2.97-4.32,1.22-7.47c-1.21-2.17-10.85-2.09-10.77-2.63c0.32-1.99,10.71-11.01,12.66-14.68
				c1.67-2.14-0.05-2.71-0.63-3.88c-0.56-1.14-0.45-1.13-1.45-1.72c0.94-1.4,1.67-3,2.88-4.15c1.29-0.8,4.8-26.68,4.8-26.68
				s-14.47-5.04-36.9-5.04S56.02,96.69,56.02,96.69z"/>
			<path class="st3" d="M66.01,130.61c0,0-13.64,3.96-20.14,4.57c0,0,0.64,1.83,2.79,3.03c2.15,1.2,5.54,0.67,5.54,0.67
				s-2.74-1.92-2.69-2.36c0,0,7.71,1.22,13.83-0.72s10.65-4.62,10.65-4.62S67.12,132.64,66.01,130.61z"/>
			<path class="st3" d="M122.57,130.61c0,0,13.64,3.96,20.14,4.57c0,0-0.64,1.83-2.79,3.03c-2.15,1.2-5.54,0.67-5.54,0.67
				s2.74-1.92,2.69-2.36c0,0-7.71,1.22-13.83-0.72s-10.65-4.62-10.65-4.62S121.46,132.64,122.57,130.61z"/>
			<g>
				
					<radialGradient id="SVGID_2_" cx="116.3275" cy="37.6808" r="5.8081" gradientTransform="matrix(1 0 0 -1 0 194)" gradientUnits="userSpaceOnUse">
					<stop  offset="0" style="stop-color:#FFFFFF"/>
					<stop  offset="0.5" style="stop-color:#FFD700"/>
					<stop  offset="1" style="stop-color:#CEA507"/>
				</radialGradient>
				<path class="st4" d="M110.09,157.72c0.62,1.51,2.21,3.55,5.63,3.86c0.83,0.08,1.57,0.02,2.18-0.2c2.81-0.95,2.4-4.77,2.39-4.82
					l-0.05-0.5l0.47-0.16c0.09-0.03,2.09-0.72,1.89-2.34c-0.1-0.8-0.65-1.67-1.39-2.15c-0.51-0.35-1.04-0.47-1.46-0.34
					c-0.2,0.07-0.39,0.23-0.56,0.43c0.26,0.26,1.56,4.49-1.53,6.74c-0.35,0.26-0.92,0.21-1.38,0.19c-2.51-1.04-2.8-0.59-4.98-2.46
					C110.45,155.7,109.9,156.21,110.09,157.72z"/>
				
					<radialGradient id="SVGID_3_" cx="115.4162" cy="41.2107" r="3.1441" gradientTransform="matrix(1 0 0 -1 0 194)" gradientUnits="userSpaceOnUse">
					<stop  offset="0" style="stop-color:#FFFFFF"/>
					<stop  offset="0.5" style="stop-color:#FFD700"/>
					<stop  offset="1" style="stop-color:#CEA507"/>
				</radialGradient>
				<path class="st5" d="M111.51,154.36c0.48,0.01,1.1-0.07,1.36-0.04c0.87,0.09,1.76,0.18,2.62,0.24c1.22,0.09,2.42,0.13,3.62,0.22
					c0.04-0.06,0.08-0.12,0.11-0.19c0.24-0.53,0.19-1.14,0.1-1.7c-0.08-0.41-0.23-0.67-0.41-0.98l-0.35-0.05
					c-4.65-0.67-6.43-0.92-7.12-1.04c0.33,0.53,0.38,1.39,0.37,1.97C111.78,153.32,111.74,153.87,111.51,154.36z"/>
				<path class="st6" d="M106.15,154.99c0.23,0.32,0.57,0.66,1.06,0.89c0.42,0.2,0.81,0.24,1.16,0.12c0.26-0.09,0.42-0.24,0.41-0.26
					l0.74-0.78c0.08-0.15,0.18-0.29,0.29-0.43c0.17-0.24,0.35-0.49,0.53-0.76c0.15-0.46,0.29-0.94,0.32-1.48
					c0.07-1.03-0.22-1.96-0.39-2.94c-0.35-0.95-0.88-1.88-1.73-1.89c-0.17,0-0.33,0.03-0.48,0.08c-0.92,0.31-1.31,1.48-1.42,1.83
					c0.42,0.18,0.79,0.39,1.14,0.62c0.09,0.04,0.17,0.09,0.26,0.13c-0.01-0.02-0.02-0.04-0.03-0.06c-0.02-0.02,0.01-0.06,0.03-0.05
					c0.05,0.01,0.08,0.05,0.11,0.06c-0.05-0.11-0.11-0.2-0.19-0.28c-0.04-0.05,0.03-0.11,0.08-0.07c0.32,0.27,0.66,0.63,0.68,1.07
					c0.01,0.07,0.03,0.14,0.04,0.2c0.22,0.73,0.03,1.73-0.27,2.33c-0.09,0.19-0.21,0.32-0.34,0.44c-0.02,0.03-0.05,0.07-0.07,0.11
					c0.65-0.17,0.93-0.79,1.25-1.41c0,0,0.01,0,0.02,0.01c0.11,0.63-0.26,1.23-0.8,1.68c0.01,0,0.01,0,0.02-0.01
					c0.76-0.32,0.82-1.04,1.29-1.61c0,0,0.01,0,0.02,0.01c-0.02,0.76-0.29,1.94-0.98,2.34
					C108.06,155.37,106.99,155.43,106.15,154.99z"/>
				
					<radialGradient id="SVGID_4_" cx="86.7894" cy="51.7066" r="17.2784" gradientTransform="matrix(1 0 0 -1 0 194)" gradientUnits="userSpaceOnUse">
					<stop  offset="0" style="stop-color:#FFFFFF"/>
					<stop  offset="0.5" style="stop-color:#FFD700"/>
					<stop  offset="1" style="stop-color:#CEA507"/>
				</radialGradient>
				<path class="st7" d="M65.27,130.71c1.11,3.09,4.02,9.03,10.88,12.83c9.77,5.42,28.93,10.16,29.13,10.19l0.32,0.08l0.02,0.05
					c0.47-0.01,1.02-0.02,1.51-0.14c-5.86-1.84-11.69-3.82-17.56-5.62c-2.33-0.72-4.6-1.58-6.87-2.48c-1.83-0.72-4.58-1.81-6-3.24
					c-0.02-0.01-0.01-0.02,0.01-0.02c4.27,2.87,9.92,4.37,14.77,5.55c5.49,1.34,10.79,3.21,16.18,4.87
					c0.09,0.02,0.17,0.07,0.23,0.11c0.02-0.03,0.05-0.04,0.05-0.08c0.33-0.67,0.29-1.34,0.38-2.03c0-0.01,0-0.04,0-0.05
					c-0.41-0.05-0.87-0.22-1.2-0.33c-0.23-0.08-0.44-0.18-0.66-0.3v0.01l-0.62-0.23C104.48,149.43,74.41,138.15,65.27,130.71z"/>
				<path class="st6" d="M64.87,130.24c0.77,0.32,1.16,1.43,1.58,2.12c1.4,2.27,2.86,4.13,4.92,5.76c1.95,1.54,3.85,3.18,5.97,4.46
					c1.25,0.76,2.26,1.24,3.24,2.12c1.34,0.41,2.68,0.97,4.02,1.33c1.01,0.28,1.99,0.75,2.92,1.25c0.24,0.13,0.5,0.25,0.74,0.37
					c0.49,0.12,0.95,0.32,1.47,0.5c0.98,0.32,2.03,0.38,3.03,0.58c1.76,0.34,3.66,1.16,5.28,2.02c0.28,0.06,0.56,0.13,0.85,0.19
					c0.94,0.19,1.86,0.44,2.78,0.71c1.01-0.13,1.92-0.02,2.95,0.07c0.57,0.05,1.16,0.01,1.73-0.14c0.81-0.22,1.13-0.95,1.58-1.59
					c0.02-0.02,0.03,0,0.04,0.02c0.02,0.15,0.02,0.29,0.01,0.44c0.02-0.04,0.04-0.08,0.07-0.12h0.01c0.98,0.61,0.56,2.26-0.08,2.94
					c-0.19,0.2-0.38,0.35-0.58,0.47c0.08,0.08,0.15,0.14,0.23,0.23c0.06,0.07,0.03,0.18-0.06,0.19c-2.69,0.22-5.61-1.16-8.2-1.81
					c-1.49-0.38-2.97-0.57-4.41-1.12c-1.19-0.45-2.26-1.05-3.44-1.49c-1.22-0.17-2.57-0.34-3.6-0.98c-1.58-0.26-3.17-1.31-4.67-1.67
					c-1.01-0.24-3.21-0.57-4.06-1.58c-0.89-0.39-1.77-0.83-2.65-1.25c-2-0.97-3.93-2.72-5.61-4.19c-2.78-2.42-4.92-6.21-6.07-9.79
					C64.84,130.25,64.85,130.24,64.87,130.24z"/>
				<path class="st6" d="M111.38,152.75c-0.11-0.11-0.17-0.29-0.13-0.47c-0.19-0.26-0.28-0.61-0.17-1.14
					c0.26-1.22,2.57-0.35,3.17-0.22c1.16,0.26,2.27,0.51,3.46,0.6c0.63,0.05,1.09,0.02,1.5,0.57c0.06,0.08,0.05,0.16,0.02,0.23
					c0.39,0.02,0.58,0.48,0.44,0.84c-0.03,0.08-0.08,0.14-0.11,0.2c0.02,0.02,0.04,0.06,0.01,0.08c-0.03,0.02-0.06,0.03-0.08,0.05
					c-0.21,0.25-0.51,0.35-0.83,0.39c-0.73,0.37-1.65,0.08-2.4-0.1c-1.54-0.35-3.16-0.44-4.74-0.43
					C111.19,153.35,111.13,152.86,111.38,152.75z"/>
				<path class="st1" d="M76.7,142.39c1.35,1.37,3.9,2.42,5.74,3.15c0.09,0.04,0.18,0.07,0.27,0.11c1.74,0.68,3.5,1.35,5.27,1.95
					c0-0.02,0.01-0.05,0.01-0.08c0.01-0.16,0.02-0.32,0.02-0.48c-0.88-0.24-1.77-0.49-2.65-0.77c-0.05-0.02-0.1-0.04-0.15-0.05
					l-0.36-0.11c-0.02-0.01-0.05-0.02-0.05-0.02c-1.03-0.34-2.04-0.7-3.03-1.11c-0.61-0.24-1.21-0.5-1.79-0.78
					c-1.15-0.54-2.24-1.15-3.25-1.82C76.7,142.36,76.69,142.38,76.7,142.39z M64.1,128.79c0,0,1.83,9.79,11.78,15.29
					c1.25,0.69,2.63,1.37,4.11,2.03c0.02,0.01,0.03,0.02,0.05,0.02c0.2,0.08,0.39,0.17,0.6,0.26c1.31,0.56,2.68,1.12,4.08,1.64
					c0.29,0.11,0.58,0.22,0.86,0.32c0.36,0.14,0.71,0.27,1.08,0.4c0.41,0.15,0.82,0.3,1.23,0.44c0.23,0.08,0.45,0.17,0.68,0.24
					c0.28,0.11,0.57,0.2,0.86,0.3c0.04,0.01,0.06,0.02,0.1,0.03c1.04,0.36,2.09,0.7,3.11,1.02c0.35,0.11,0.68,0.22,1.03,0.32h0.01
					c0.81,0.26,1.6,0.5,2.36,0.72c5.22,1.55,9.14,2.51,9.14,2.51s0.41,1.46,1.83,2.11c1.42,0.66,2.22-0.27,2.22-0.27
					s0.56,5.49,6.47,6.02c5.92,0.53,5.2-5.69,5.2-5.69s2.57-0.82,2.3-3.02c-0.27-2.19-3.12-4.28-4.53-2.24c0,0-7.41-1.07-7.5-1.1
					c-0.1-0.03-0.68-3.29-2.62-3.29c-1.61,0-2.26,1.73-2.43,2.31c-0.26-0.1-0.5-0.19-0.71-0.27c-0.47-0.17-0.95-0.26-1.42-0.34
					c-0.4-0.16-0.86-0.34-1.37-0.53c-0.2-0.08-0.41-0.16-0.63-0.25c-0.07-0.03-0.15-0.06-0.23-0.09c-0.4-0.16-0.83-0.33-1.28-0.5
					c-0.23-0.09-0.47-0.18-0.71-0.28c-0.15-0.06-0.29-0.12-0.45-0.18c-0.21-0.09-0.43-0.17-0.65-0.27c-1.28-0.5-2.69-1.08-4.19-1.7
					c-0.27-0.11-0.53-0.23-0.81-0.34c-0.43-0.18-0.86-0.36-1.31-0.54c-0.04-0.02-0.08-0.04-0.11-0.05c-1.13-0.47-2.3-0.97-3.48-1.47
					c-0.21-0.1-0.43-0.19-0.65-0.29c-3.36-1.46-6.82-3.03-10.07-4.61c-0.47-0.23-0.93-0.46-1.37-0.68
					c-0.61-0.31-1.21-0.61-1.79-0.91c-0.29-0.15-0.57-0.3-0.84-0.44c-0.24-0.13-0.47-0.26-0.71-0.38
					C69.09,132.79,65.68,130.61,64.1,128.79z M111.51,154.36c0.15-0.32,0.22-0.65,0.26-1c0.02-0.2,0.04-0.4,0.05-0.59
					c0.02-0.57-0.04-1.43-0.37-1.97c0.7,0.11,2.47,0.37,7.12,1.04l0.35,0.05c0.17,0.32,0.33,0.57,0.41,0.98
					c0.05,0.29,0.08,0.58,0.08,0.88c-0.01,0.29-0.06,0.56-0.17,0.82c-0.04,0.07-0.08,0.13-0.12,0.19c-1.2-0.09-2.4-0.13-3.62-0.22
					c-0.86-0.06-1.74-0.15-2.61-0.24C112.61,154.29,111.99,154.36,111.51,154.36z M119.07,156.27c0,0-0.6,1.87-2.74,1.76
					c-3.75-0.41-4.56-2.2-4.56-2.2L119.07,156.27z M110.22,157.72c-0.17-1.22,0.29-1.44,1.1-1.48c0.3,0.51,1.48,2.02,4.98,2.4
					c0.47,0.02,0.92-0.02,1.32-0.17c0.49-0.17,2.11-1.06,2.29-2.73c0,0,0.32-1.51-0.09-3c-0.02-0.08-0.05-0.17-0.09-0.26
					c-0.13-0.35-0.33-0.77-0.53-0.98c0.17-0.2,0.35-0.36,0.56-0.43c0.42-0.14,0.95-0.02,1.46,0.33c0.74,0.49,1.28,1.37,1.38,2.15
					c0.19,1.63-1.81,2.32-1.9,2.35l-0.47,0.16l0.05,0.5c0.02,0.04,0.41,3.87-2.39,4.81c-0.61,0.21-1.35,0.28-2.18,0.2
					C112.29,161.27,110.84,159.22,110.22,157.72z M106.15,154.99c0.85,0.44,1.91,0.38,2.72-0.12c0.69-0.41,0.95-1.58,0.98-2.34
					c-0.01-0.01-0.02-0.01-0.02-0.01c-0.47,0.56-0.53,1.3-1.29,1.61c-0.01,0-0.01,0-0.02,0.01c0.54-0.45,0.91-1.04,0.8-1.68
					c0-0.01-0.02,0-0.02,0c-0.32,0.61-0.59,1.23-1.25,1.41c0.02-0.03,0.05-0.08,0.06-0.11c0.13-0.11,0.26-0.25,0.35-0.44
					c0.3-0.59,0.5-1.59,0.28-2.33c-0.02-0.06-0.04-0.14-0.05-0.2c-0.02-0.44-0.36-0.8-0.68-1.07c-0.05-0.04-0.11,0.03-0.08,0.08
					c0.08,0.08,0.14,0.17,0.2,0.28c-0.05-0.02-0.07-0.06-0.12-0.07c-0.02,0-0.05,0.04-0.03,0.06c0.01,0.02,0.02,0.04,0.03,0.05
					c-0.02-0.01-0.05-0.02-0.06-0.03c-0.03-0.02-0.06-0.03-0.09-0.05c-0.04-0.02-0.07-0.04-0.11-0.05
					c-0.35-0.23-0.72-0.45-1.14-0.62c0.11-0.36,0.5-1.52,1.41-1.83c0.15-0.05,0.31-0.08,0.49-0.08c0.84,0.01,1.37,0.94,1.72,1.89
					c0.17,0.98,0.46,1.91,0.39,2.94c-0.03,0.53-0.17,1.01-0.32,1.47c-0.17,0.27-0.36,0.52-0.52,0.76c-0.11,0.14-0.2,0.27-0.29,0.43
					l-0.74,0.78c0,0.01-0.16,0.17-0.41,0.26c-0.35,0.12-0.74,0.08-1.16-0.12C106.72,155.65,106.38,155.31,106.15,154.99z
					 M76.15,143.54c-6.85-3.79-9.76-9.73-10.88-12.83c0.15,0.12,0.3,0.24,0.46,0.36c1.86,1.44,4.44,3,7.42,4.59
					c0.24,0.14,0.49,0.27,0.74,0.4l0.8,0.43c4.17,2.15,8.93,4.34,13.45,6.3c0.21,0.09,0.41,0.18,0.62,0.27
					c1.21,0.52,2.39,1.02,3.54,1.5c0.01,0,0.02,0.01,0.02,0.01c2.3,0.96,4.46,1.84,6.34,2.59c0.23,0.09,0.44,0.18,0.66,0.26
					c0.73,0.29,1.42,0.56,2.05,0.81c2.51,0.98,4.17,1.6,4.47,1.71l0.61,0.23l-0.01-0.02c0.22,0.12,0.44,0.23,0.66,0.3
					c0.13,0.05,0.27,0.1,0.41,0.14c0.26,0.09,0.53,0.17,0.79,0.2c0.01,0.01,0,0.03,0.01,0.05c-0.1,0.68-0.05,1.36-0.38,2.03
					c-0.02,0.04-0.05,0.05-0.05,0.08c-0.05-0.05-0.14-0.1-0.23-0.12c-1.19-0.37-2.36-0.74-3.55-1.13c-0.01,0-0.02,0-0.02,0
					c-1.77-0.56-3.54-1.14-5.31-1.68c-2.41-0.75-4.84-1.46-7.31-2.06c-0.92-0.23-1.86-0.47-2.82-0.71
					c-0.22-0.06-0.44-0.12-0.65-0.18c-0.88-0.24-1.77-0.49-2.65-0.77c-0.05-0.02-0.1-0.04-0.15-0.05l-0.36-0.11
					c-0.02-0.01-0.05-0.02-0.05-0.02c-1.03-0.34-2.04-0.7-3.03-1.11c-0.61-0.24-1.21-0.5-1.79-0.78c-1.15-0.54-2.24-1.15-3.25-1.82
					c-0.01-0.01-0.02,0.01-0.01,0.02c1.35,1.37,3.9,2.42,5.74,3.15c0.09,0.04,0.18,0.07,0.27,0.11c1.74,0.68,3.5,1.35,5.27,1.95
					c0.22,0.08,0.44,0.15,0.65,0.22c0.32,0.11,0.63,0.21,0.95,0.31c0.05,0.02,0.11,0.03,0.16,0.05c2.69,0.83,5.37,1.69,8.05,2.56
					c3.12,1.01,6.22,2.03,9.35,3.01c-0.49,0.13-1.04,0.13-1.51,0.14l-0.02-0.05l-0.32-0.08c-0.08-0.02-3.69-0.91-8.56-2.35
					c-1.43-0.43-2.97-0.9-4.56-1.41c-0.31-0.11-0.62-0.2-0.94-0.31c-0.86-0.29-1.74-0.58-2.62-0.89c-0.22-0.08-0.44-0.16-0.67-0.24
					c-1.02-0.35-2.04-0.73-3.06-1.12C81.67,146.22,78.61,144.9,76.15,143.54z"/>
				
					<radialGradient id="SVGID_5_" cx="70.967" cy="37.6808" r="5.8088" gradientTransform="matrix(1 0 0 -1 0 194)" gradientUnits="userSpaceOnUse">
					<stop  offset="0" style="stop-color:#FFFFFF"/>
					<stop  offset="0.5" style="stop-color:#FFD700"/>
					<stop  offset="1" style="stop-color:#CEA507"/>
				</radialGradient>
				<path class="st8" d="M77.21,157.72c-0.62,1.51-2.21,3.55-5.63,3.86c-0.83,0.08-1.57,0.02-2.18-0.2
					c-2.81-0.95-2.4-4.77-2.39-4.82l0.05-0.5l-0.47-0.16c-0.09-0.03-2.09-0.72-1.89-2.34c0.1-0.8,0.65-1.67,1.39-2.15
					c0.51-0.35,1.04-0.47,1.46-0.34c0.2,0.07,0.39,0.23,0.56,0.43c-0.26,0.26-1.56,4.49,1.53,6.74c0.35,0.26,0.92,0.21,1.38,0.19
					c2.51-1.04,2.8-0.59,4.98-2.46C76.85,155.7,77.4,156.21,77.21,157.72z"/>
				
					<radialGradient id="SVGID_6_" cx="71.8847" cy="41.2107" r="3.1401" gradientTransform="matrix(1 0 0 -1 0 194)" gradientUnits="userSpaceOnUse">
					<stop  offset="0" style="stop-color:#FFFFFF"/>
					<stop  offset="0.5" style="stop-color:#FFD700"/>
					<stop  offset="1" style="stop-color:#CEA507"/>
				</radialGradient>
				<path class="st9" d="M75.79,154.36c-0.48,0.01-1.1-0.07-1.36-0.04c-0.87,0.09-1.76,0.18-2.62,0.24
					c-1.22,0.09-2.42,0.13-3.62,0.22c-0.04-0.06-0.08-0.12-0.11-0.19c-0.24-0.53-0.19-1.14-0.1-1.7c0.08-0.41,0.23-0.67,0.41-0.98
					l0.35-0.05c4.65-0.67,6.43-0.92,7.12-1.04c-0.33,0.53-0.38,1.39-0.37,1.97C75.52,153.32,75.56,153.87,75.79,154.36z"/>
				<path class="st3" d="M81.15,154.99c-0.23,0.32-0.57,0.66-1.06,0.89c-0.42,0.2-0.81,0.24-1.16,0.12
					c-0.26-0.09-0.42-0.24-0.41-0.26l-0.74-0.78c-0.08-0.15-0.18-0.29-0.29-0.43c-0.17-0.24-0.35-0.49-0.53-0.76
					c-0.15-0.46-0.29-0.94-0.32-1.48c-0.07-1.03,0.22-1.96,0.39-2.94c0.35-0.95,0.88-1.88,1.73-1.89c0.17,0,0.33,0.03,0.48,0.08
					c0.92,0.31,1.31,1.48,1.42,1.83c-0.42,0.18-0.79,0.39-1.14,0.62c-0.09,0.04-0.17,0.09-0.26,0.13c0.01-0.02,0.02-0.04,0.03-0.06
					c0.02-0.02-0.01-0.06-0.03-0.05c-0.05,0.01-0.08,0.05-0.11,0.06c0.05-0.11,0.11-0.2,0.19-0.28c0.04-0.05-0.03-0.11-0.08-0.07
					c-0.32,0.27-0.66,0.63-0.68,1.07c-0.01,0.07-0.03,0.14-0.04,0.2c-0.22,0.73-0.03,1.73,0.27,2.33c0.09,0.19,0.21,0.32,0.34,0.44
					c0.02,0.03,0.05,0.07,0.07,0.11c-0.65-0.17-0.93-0.79-1.25-1.41c0,0-0.01,0-0.02,0.01c-0.11,0.63,0.26,1.23,0.8,1.68
					c-0.01,0-0.01,0-0.02-0.01c-0.76-0.32-0.82-1.04-1.29-1.61c0,0-0.01,0-0.02,0.01c0.02,0.76,0.29,1.94,0.98,2.34
					C79.24,155.37,80.3,155.43,81.15,154.99z"/>
				
					<radialGradient id="SVGID_7_" cx="100.5115" cy="51.7066" r="17.2784" gradientTransform="matrix(1 0 0 -1 0 194)" gradientUnits="userSpaceOnUse">
					<stop  offset="0" style="stop-color:#FFFFFF"/>
					<stop  offset="0.5" style="stop-color:#FFD700"/>
					<stop  offset="1" style="stop-color:#CEA507"/>
				</radialGradient>
				<path class="st10" d="M122.03,130.71c-1.11,3.09-4.02,9.03-10.88,12.83c-9.77,5.42-28.93,10.16-29.13,10.19l-0.32,0.08
					l-0.02,0.05c-0.47-0.01-1.02-0.02-1.51-0.14c5.86-1.84,11.69-3.82,17.56-5.62c2.33-0.72,4.6-1.58,6.87-2.48
					c1.83-0.72,4.58-1.81,6-3.24c0.02-0.01,0.01-0.02-0.01-0.02c-4.27,2.87-9.92,4.37-14.77,5.55c-5.49,1.34-10.79,3.21-16.18,4.87
					c-0.09,0.02-0.17,0.07-0.23,0.11c-0.02-0.03-0.05-0.04-0.05-0.08c-0.33-0.67-0.29-1.34-0.38-2.03c0-0.01,0-0.04,0-0.05
					c0.41-0.05,0.87-0.22,1.2-0.33c0.23-0.08,0.44-0.18,0.66-0.3v0.01l0.62-0.23C82.81,149.43,112.89,138.15,122.03,130.71z"/>
				<path class="st3" d="M122.43,130.24c-0.77,0.32-1.16,1.43-1.58,2.12c-1.4,2.27-2.86,4.13-4.92,5.76
					c-1.95,1.54-3.85,3.18-5.97,4.46c-1.25,0.76-2.26,1.24-3.24,2.12c-1.34,0.41-2.68,0.97-4.02,1.33
					c-1.01,0.28-1.99,0.75-2.92,1.25c-0.24,0.13-0.5,0.25-0.74,0.37c-0.49,0.12-0.95,0.32-1.47,0.5c-0.98,0.32-2.03,0.38-3.03,0.58
					c-1.76,0.34-3.66,1.16-5.28,2.02c-0.28,0.06-0.56,0.13-0.85,0.19c-0.94,0.19-1.86,0.44-2.78,0.71
					c-1.01-0.13-1.92-0.02-2.95,0.07c-0.57,0.05-1.16,0.01-1.73-0.14c-0.81-0.22-1.13-0.95-1.58-1.59c-0.02-0.02-0.03,0-0.04,0.02
					c-0.02,0.15-0.02,0.29-0.01,0.44c-0.02-0.04-0.04-0.08-0.07-0.12c0,0,0,0-0.01,0c-0.98,0.61-0.56,2.26,0.08,2.94
					c0.19,0.2,0.38,0.35,0.58,0.47c-0.08,0.08-0.15,0.14-0.23,0.23c-0.06,0.07-0.03,0.18,0.06,0.19c2.69,0.22,5.61-1.16,8.2-1.81
					c1.49-0.38,2.97-0.57,4.41-1.12c1.19-0.45,2.26-1.05,3.44-1.49c1.22-0.17,2.57-0.34,3.6-0.98c1.58-0.26,3.17-1.31,4.67-1.67
					c1.01-0.24,3.21-0.57,4.06-1.58c0.89-0.39,1.77-0.83,2.65-1.25c2-0.97,3.93-2.72,5.61-4.19c2.78-2.42,4.92-6.21,6.07-9.79
					C122.46,130.25,122.44,130.24,122.43,130.24z"/>
				<path class="st3" d="M75.92,152.75c0.11-0.11,0.17-0.29,0.13-0.47c0.19-0.26,0.28-0.61,0.17-1.14
					c-0.26-1.22-2.57-0.35-3.17-0.22c-1.16,0.26-2.27,0.51-3.46,0.6c-0.63,0.05-1.09,0.02-1.5,0.57c-0.06,0.08-0.05,0.16-0.02,0.23
					c-0.39,0.02-0.58,0.48-0.44,0.84c0.03,0.08,0.08,0.14,0.11,0.2c-0.02,0.02-0.04,0.06-0.01,0.08s0.06,0.03,0.08,0.05
					c0.21,0.25,0.51,0.35,0.83,0.39c0.73,0.37,1.65,0.08,2.4-0.1c1.54-0.35,3.16-0.44,4.74-0.43
					C76.11,153.35,76.16,152.86,75.92,152.75z"/>
				<path class="st1" d="M110.6,142.37c-1.02,0.68-2.11,1.28-3.25,1.82c-0.59,0.28-1.18,0.54-1.79,0.78
					c-0.99,0.41-2.01,0.77-3.03,1.11c-0.02,0-0.04,0.01-0.05,0.02l-0.36,0.11c-0.05,0.02-0.1,0.04-0.15,0.05
					c-0.88,0.28-1.77,0.53-2.65,0.77c0.01,0.17,0.02,0.32,0.02,0.48c0,0.03,0.01,0.05,0.01,0.08c1.77-0.6,3.53-1.27,5.27-1.95
					c0.08-0.04,0.17-0.07,0.27-0.11c1.82-0.72,4.38-1.77,5.74-3.15C110.6,142.38,110.6,142.36,110.6,142.37z M113.98,135.06
					c-0.23,0.13-0.47,0.26-0.71,0.38c-0.28,0.14-0.56,0.29-0.84,0.44c-0.59,0.3-1.18,0.6-1.79,0.91c-0.45,0.23-0.92,0.46-1.37,0.68
					c-3.24,1.58-6.71,3.15-10.07,4.61c-0.22,0.1-0.44,0.19-0.65,0.29c-1.18,0.5-2.35,1.01-3.48,1.47c-0.04,0.02-0.08,0.04-0.11,0.05
					c-0.45,0.19-0.89,0.37-1.31,0.54c-0.28,0.11-0.54,0.23-0.81,0.34c-1.49,0.62-2.91,1.19-4.19,1.7c-0.23,0.1-0.44,0.18-0.65,0.27
					c-0.16,0.06-0.3,0.12-0.45,0.18c-0.24,0.1-0.48,0.19-0.71,0.28c-0.46,0.18-0.89,0.35-1.28,0.5c-0.08,0.03-0.16,0.06-0.23,0.09
					c-0.22,0.09-0.43,0.17-0.63,0.25c-0.5,0.2-0.96,0.38-1.37,0.53c-0.47,0.08-0.95,0.17-1.42,0.34c-0.22,0.08-0.47,0.17-0.71,0.27
					c-0.17-0.58-0.82-2.31-2.43-2.31c-1.94,0-2.52,3.26-2.62,3.29c-0.09,0.03-7.5,1.1-7.5,1.1c-1.42-2.03-4.26,0.05-4.53,2.24
					c-0.27,2.2,2.3,3.02,2.3,3.02s-0.72,6.23,5.2,5.69c5.92-0.53,6.47-6.02,6.47-6.02s0.8,0.93,2.22,0.27
					c1.43-0.65,1.83-2.11,1.83-2.11s3.92-0.96,9.14-2.51c0.76-0.23,1.55-0.47,2.36-0.72h0.01c0.35-0.11,0.68-0.21,1.03-0.32
					c1.02-0.32,2.06-0.66,3.11-1.02c0.04-0.01,0.06-0.02,0.1-0.03c0.29-0.1,0.58-0.2,0.86-0.3c0.23-0.08,0.46-0.16,0.68-0.24
					c0.41-0.14,0.83-0.29,1.23-0.44c0.37-0.13,0.72-0.26,1.08-0.4c0.28-0.11,0.57-0.22,0.86-0.32c1.4-0.53,2.77-1.08,4.08-1.64
					c0.2-0.09,0.4-0.18,0.6-0.26c0.02-0.01,0.03-0.02,0.05-0.02c1.49-0.65,2.87-1.34,4.11-2.03c9.95-5.5,11.78-15.29,11.78-15.29
					C121.61,130.61,118.2,132.79,113.98,135.06z M74.42,154.32c-0.87,0.09-1.75,0.18-2.61,0.24c-1.22,0.09-2.42,0.13-3.62,0.22
					c-0.04-0.06-0.08-0.12-0.12-0.19c-0.11-0.26-0.17-0.53-0.17-0.82c-0.01-0.3,0.03-0.59,0.08-0.88c0.08-0.41,0.24-0.67,0.41-0.98
					l0.35-0.05c4.65-0.68,6.43-0.93,7.12-1.04c-0.33,0.53-0.38,1.4-0.37,1.97c0.01,0.2,0.02,0.4,0.05,0.59
					c0.04,0.35,0.11,0.68,0.26,1C75.3,154.36,74.69,154.29,74.42,154.32z M75.53,155.83c0,0-0.82,1.79-4.56,2.2
					c-2.15,0.11-2.74-1.76-2.74-1.76L75.53,155.83z M71.58,161.58c-0.83,0.08-1.57,0.02-2.18-0.2c-2.81-0.95-2.41-4.77-2.39-4.81
					l0.05-0.5l-0.47-0.16c-0.09-0.03-2.09-0.71-1.9-2.35c0.1-0.79,0.65-1.66,1.38-2.15c0.51-0.35,1.04-0.47,1.46-0.33
					c0.2,0.07,0.39,0.23,0.56,0.43c-0.2,0.21-0.41,0.63-0.53,0.98c-0.04,0.09-0.07,0.18-0.09,0.26c-0.41,1.48-0.09,3-0.09,3
					c0.18,1.67,1.81,2.57,2.29,2.73c0.41,0.14,0.86,0.19,1.32,0.17c3.51-0.38,4.68-1.88,4.98-2.4c0.81,0.05,1.27,0.26,1.1,1.48
					C76.46,159.22,75,161.27,71.58,161.58z M80.09,155.88c-0.42,0.2-0.81,0.24-1.16,0.12c-0.26-0.09-0.41-0.25-0.41-0.26l-0.74-0.78
					c-0.08-0.16-0.18-0.29-0.29-0.43c-0.17-0.24-0.35-0.49-0.52-0.76c-0.16-0.47-0.29-0.94-0.32-1.47
					c-0.06-1.04,0.22-1.96,0.39-2.94c0.35-0.95,0.88-1.88,1.72-1.89c0.17,0,0.34,0.03,0.49,0.08c0.91,0.31,1.31,1.47,1.41,1.83
					c-0.41,0.17-0.79,0.39-1.14,0.62c-0.04,0.02-0.07,0.04-0.11,0.05c-0.03,0.02-0.06,0.03-0.09,0.05
					c-0.02,0.02-0.05,0.02-0.06,0.03c0.01-0.02,0.02-0.04,0.03-0.05c0.02-0.02-0.01-0.06-0.03-0.06c-0.05,0.01-0.08,0.05-0.12,0.07
					c0.05-0.11,0.12-0.2,0.2-0.28c0.04-0.05-0.04-0.11-0.08-0.08c-0.32,0.27-0.66,0.62-0.68,1.07c-0.01,0.07-0.03,0.14-0.05,0.2
					c-0.22,0.74-0.03,1.74,0.28,2.33c0.09,0.19,0.22,0.32,0.35,0.44c0.02,0.03,0.05,0.08,0.06,0.11c-0.65-0.18-0.93-0.8-1.25-1.41
					c0,0-0.02-0.01-0.02,0c-0.11,0.64,0.26,1.24,0.8,1.68c-0.02-0.01-0.02-0.01-0.02-0.01c-0.76-0.32-0.83-1.04-1.29-1.61
					c0,0-0.01,0-0.02,0.01c0.02,0.76,0.29,1.94,0.98,2.34c0.82,0.49,1.88,0.56,2.72,0.12C80.92,155.31,80.58,155.65,80.09,155.88z
					 M102.44,147.43c-1.01,0.39-2.03,0.77-3.06,1.12c-0.23,0.08-0.45,0.17-0.67,0.24c-0.88,0.31-1.76,0.6-2.62,0.89
					c-0.32,0.11-0.63,0.2-0.94,0.31c-1.6,0.5-3.14,0.98-4.56,1.41c-4.86,1.44-8.47,2.33-8.56,2.35l-0.32,0.08l-0.02,0.05
					c-0.47-0.02-1.03-0.02-1.51-0.14c3.12-0.98,6.23-2,9.35-3.01c2.68-0.87,5.36-1.73,8.05-2.56c0.05-0.02,0.11-0.03,0.16-0.05
					c0.32-0.1,0.63-0.2,0.95-0.31c0.22-0.07,0.44-0.14,0.65-0.22c1.77-0.6,3.53-1.27,5.27-1.95c0.08-0.04,0.17-0.07,0.27-0.11
					c1.82-0.72,4.38-1.77,5.74-3.15c0.01-0.01,0-0.02-0.01-0.02c-1.02,0.68-2.11,1.28-3.25,1.82c-0.59,0.28-1.18,0.54-1.79,0.78
					c-0.99,0.41-2.01,0.77-3.03,1.11c-0.02,0-0.04,0.01-0.05,0.02l-0.36,0.11c-0.05,0.02-0.1,0.04-0.15,0.05
					c-0.88,0.28-1.77,0.53-2.65,0.77c-0.22,0.06-0.44,0.12-0.65,0.18c-0.96,0.26-1.91,0.49-2.82,0.71c-2.47,0.6-4.89,1.31-7.31,2.06
					c-1.77,0.54-3.54,1.12-5.31,1.68c0,0-0.01,0-0.02,0c-1.18,0.38-2.36,0.76-3.55,1.13c-0.09,0.02-0.17,0.07-0.23,0.12
					c-0.02-0.03-0.05-0.04-0.05-0.08c-0.33-0.67-0.29-1.34-0.38-2.03c0.01-0.02,0-0.04,0.01-0.05c0.26-0.03,0.53-0.11,0.79-0.2
					c0.15-0.05,0.29-0.1,0.41-0.14c0.23-0.07,0.44-0.18,0.66-0.3l-0.01,0.02l0.61-0.23c0.29-0.11,1.95-0.73,4.47-1.71
					c0.63-0.25,1.32-0.52,2.05-0.81c0.22-0.08,0.44-0.17,0.66-0.26c1.88-0.75,4.05-1.63,6.34-2.59c0.01,0,0.02-0.01,0.02-0.01
					c1.16-0.49,2.33-0.98,3.54-1.5c0.21-0.09,0.41-0.18,0.62-0.27c4.53-1.96,9.29-4.14,13.45-6.3l0.8-0.43
					c0.26-0.13,0.5-0.26,0.74-0.4c2.97-1.59,5.55-3.16,7.42-4.59c0.16-0.12,0.31-0.24,0.46-0.36c-1.12,3.1-4.02,9.04-10.88,12.83
					C108.69,144.9,105.63,146.22,102.44,147.43z"/>
			</g>
			<g>
				
					<radialGradient id="SVGID_8_" cx="94.2847" cy="83.1594" r="21.1546" gradientTransform="matrix(1 0 0 -1 0 194)" gradientUnits="userSpaceOnUse">
					<stop  offset="0" style="stop-color:#FFFFFF"/>
					<stop  offset="0.5" style="stop-color:#FFD700"/>
					<stop  offset="1" style="stop-color:#CEA507"/>
				</radialGradient>
				<path class="st11" d="M76.02,118.18c-0.66,0.75-4.85,2.29-4.85,2.29s11.4,3.8,13.68,9.37c0,0,0.63-3.17-1.14-6.33l4.31,0.26
					c0,0-8.14-4.46-7.13-13.83c0,0,0.19,4.15,3.96,7.73c0.04-1.01,0.1-2.03,1.08-3.63c1.65,4.67,3.78,6.27,5.38,7.19
					c0,0,3.93-5.06,5.95-5.06c2.03,0,6.97,5.7,6.97,5.7l4.56-7.83l2.53,3.63c0,0,4.4-6.68,2.66-13.9l3.42,1.27
					c0,0-7.35-13.19-20.01-13.19s-17.48,7.37-20.77,11.8l3.17,0.63l-5.04,11.94C74.75,116.2,75.77,117.68,76.02,118.18z"/>
				<path class="st12" d="M80.86,104.44c0,0,3.97-7.82,14.46-8.22l1.93,3.86l1.64-3.86c0,0,5.86,1.54,7.72,5.74
					c1.34,3-0.77,8.44-4.16,12.07c0,0-3.96-4.75-8.32,0.59c0,0,2.39-1.24,3.18-0.65c0,0,0,1.75,0,2.18
					c-2.12-0.02-5.99,5.09-5.99,5.09s-3.25-1.28-5.4-7.16c0,0-1.2,1.76-1.06,3.64C84.86,117.72,79.6,114.08,80.86,104.44z"/>
				
					<radialGradient id="SVGID_9_" cx="86.5414" cy="76.5499" r="1.2483" gradientTransform="matrix(1 0 0 -1 0 194)" gradientUnits="userSpaceOnUse">
					<stop  offset="0" style="stop-color:#FFFFFF"/>
					<stop  offset="0.5" style="stop-color:#FFD700"/>
					<stop  offset="1" style="stop-color:#CEA507"/>
				</radialGradient>
				<path class="st13" d="M85.4,116.45c-0.04,0.82,2.29,2.34,2.29,2.34s-1.25-1.38-1.42-2.23C86.19,116.13,85.43,115.85,85.4,116.45
					z"/>
				
					<radialGradient id="SVGID_10_" cx="88.9851" cy="66.2144" r="2.1184" gradientTransform="matrix(1 0 0 -1 0 194)" gradientUnits="userSpaceOnUse">
					<stop  offset="0" style="stop-color:#FFFFFF"/>
					<stop  offset="0.5" style="stop-color:#FFD700"/>
					<stop  offset="1" style="stop-color:#CEA507"/>
				</radialGradient>
				<path class="st14" d="M91.37,127.3c0,0-1.49-1.8-4.77-1.2c0,0,1.92,0.31,2.94,1.31c0.52,0.51,1.13,1.27,1.77,2.19
					C91.36,128.08,91.37,127.3,91.37,127.3z"/>
				
					<radialGradient id="SVGID_11_" cx="108.1199" cy="76.5636" r="1.2062" gradientTransform="matrix(1 0 0 -1 0 194)" gradientUnits="userSpaceOnUse">
					<stop  offset="0" style="stop-color:#FFFFFF"/>
					<stop  offset="0.5" style="stop-color:#FFD700"/>
					<stop  offset="1" style="stop-color:#CEA507"/>
				</radialGradient>
				<path class="st15" d="M109.19,116.45c0.04,0.81-2.14,2.32-2.14,2.32s1.17-1.37,1.32-2.21
					C108.45,116.13,109.16,115.86,109.19,116.45z"/>
				<path class="st3" d="M103.72,127.3c0,0-3.87-6.9-6.01-6.96c-2.54-0.08-6.33,6.96-6.33,6.96s-1.49-1.8-4.77-1.2
					c0,0,1.92,0.31,2.94,1.31c2.54,2.51,7.18,10.85,7.79,15.4c0,0,2.28-13.23,3.23-13.54l2.28,3.8c0,0,1.4-6.01,5.19-6.96
					C108.02,126.1,105.94,125.4,103.72,127.3z M93.67,126.65l0.8-2.43l1.22,1L93.67,126.65z M99.24,125.23l1.3-1.01l0.86,2.45
					L99.24,125.23z"/>
				
					<radialGradient id="SVGID_12_" cx="102.6584" cy="62.4268" r="8.8051" gradientTransform="matrix(1 0 0 -1 0 194)" gradientUnits="userSpaceOnUse">
					<stop  offset="0" style="stop-color:#FFFFFF"/>
					<stop  offset="0.5" style="stop-color:#FFD700"/>
					<stop  offset="1" style="stop-color:#CEA507"/>
				</radialGradient>
				<path class="st16" d="M103.72,127.3c0,0-3.87-6.9-6.01-6.96c-0.14-0.01-0.28,0.02-0.42,0.05v22.2c0.01,0.07,0.03,0.14,0.04,0.21
					c0,0,2.28-13.23,3.23-13.54l2.28,3.8c0,0,1.4-6.01,5.19-6.96C108.02,126.1,105.94,125.4,103.72,127.3z M99.24,125.23l1.3-1.01
					l0.86,2.45L99.24,125.23z"/>
			</g>
			<path class="st3" d="M53.84,103.98c0,0-22.48-6.46-29.33-11.85c0,0-0.44,3.65,1.45,7.3c1.88,3.65,4.4,4.38,4.4,4.38
				s-1.91-3.72-1.58-4.33c0,0,7.84,5.61,16.6,8.14c8.77,2.51,18.83,3.36,18.83,3.36S53.89,107.94,53.84,103.98z"/>
			<path class="st3" d="M59.78,118.34c0,0-20.72,0.17-28.2-2.06c0,0,0.02,2.17,2.38,4.49c2.35,2.32,5.33,2.74,5.33,2.74
				s-2.81-3.27-2.66-3.84c0,0,9.04,3.87,16.9,3.49c7.85-0.38,15.61-1.5,15.61-1.5S60.68,121.38,59.78,118.34z"/>
			<path class="st3" d="M135.19,103.98c0,0,22.48-6.46,29.33-11.85c0,0,0.44,3.65-1.45,7.3c-1.88,3.65-4.4,4.38-4.4,4.38
				s1.91-3.72,1.58-4.33c0,0-7.84,5.61-16.6,8.14c-8.77,2.51-18.83,3.36-18.83,3.36S135.14,107.94,135.19,103.98z"/>
			<path class="st3" d="M129.25,118.34c0,0,20.72,0.17,28.2-2.06c0,0-0.02,2.17-2.38,4.49c-2.35,2.32-5.33,2.74-5.33,2.74
				s2.81-3.27,2.66-3.84c0,0-9.04,3.87-16.9,3.49c-7.85-0.38-15.61-1.5-15.61-1.5S128.36,121.38,129.25,118.34z"/>
			<g>
				<g>
					<path class="st3" d="M36.12,72.22c-0.39-0.37-2.3-0.62-3.18-0.41c-0.68,0.14-1.01,0.2-1.68,0.33
						c-0.35,0.09-1.44,0.44-0.96-1.61c0.45-1.92,1.13-2.18,1.35-2.22c1.08-0.22,1.62-0.32,2.71-0.53c0.29-0.05,1.12,0.27,0.89,2.4
						c-0.03,0.19,0.02,0.18,0.05,0.17c1.18-0.26,1.76-0.39,2.95-0.64c0.08-0.02,0.16-0.21,0.23-0.47c0.65-2.71,0.97-4.07,1.64-6.78
						c0.06-0.26,0.13-0.77-0.04-0.75c-0.95,0.11-1.43,0.17-2.39,0.29c-0.07,0.01-0.17,0.14-0.27,0.44
						c-0.21,0.69-0.32,1.04-0.53,1.74c-0.23-0.82-0.75-2.03-1.96-1.87c-0.95,0.13-1.43,0.19-2.39,0.32
						c-1.4,0.19-2.83,1.46-3.84,3.19c-0.76,1.31-2.33,4.05-3.32,8.36c-0.7,3.06-0.87,6.82,0.17,8.24c0.58,0.79,2.47,0.97,3.17,0.72
						c1.03-0.37,1.59-0.53,2.62-0.88c0.13-0.05,0.54,0.2,0.22,1.67c-0.28,1.28-0.89,1.73-0.98,1.76c-1.33,0.52-1.99,0.79-3.3,1.34
						c-0.1,0.05-1.55,0.5-1.13-2.16c0.05-0.29,0.04-0.44-0.04-0.41c-1.29,0.5-1.94,0.77-3.22,1.29c-0.08,0.03-0.17,0.35-0.21,0.56
						c-0.75,3.53-1.11,5.29-1.82,8.82c-0.07,0.35-0.08,0.5-0.02,0.47c1.23-0.65,1.85-0.96,3.1-1.58c0.07-0.03,0.14-0.14,0.23-0.48
						c0.23-0.96,0.33-1.46,0.56-2.43c0.36,1.07,1.17,1.96,2.21,1.46c1-0.47,1.5-0.71,2.51-1.16c1.33-0.6,5.39-3.43,7.28-11.86
						C38.02,73.67,36.51,72.58,36.12,72.22z"/>
					<path class="st3" d="M110.83,69.37c-0.02-0.2-0.12-0.26-0.2-0.26c-1.21-0.08-1.82-0.11-3.03-0.17
						c-0.1-0.01-0.11,0.17-0.11,0.29c0.11,1.23,0.17,1.85,0.27,3.08c-1.19-0.07-1.79-0.1-2.98-0.15c0-0.02,0-0.03,0-0.05
						c2.18-5.24,3.15-7.87,4.85-13.27c0.05-0.13-0.02-0.62-0.14-0.62c-5.33-0.11-7.99-0.12-13.33-0.08c-0.09,0-0.16,0.15-0.15,0.47
						c0.04,2.95,0.05,4.43,0.09,7.38c0,0.15,0.05,0.25,0.16,0.25c1.07-0.01,1.61-0.01,2.67,0c0.09,0,0.12-0.2,0.11-0.44
						c-0.04-1.18-0.06-1.77-0.1-2.95c1.14,0,1.71,0.01,2.85,0.02c0,0.02,0,0.03,0,0.05c-2.14,5.37-3.34,8.03-5.96,13.42
						c-0.03,0.08-0.01,0.38,0.05,0.37c6.26-0.04,9.4,0.1,15.64,0.67c0.12,0.01,0.14-0.11,0.11-0.42
						C111.32,73.93,111.16,72.41,110.83,69.37z"/>
					<path class="st3" d="M54.77,72.81c1.1-1.31,1.64-1.96,2.72-3.22c-0.86,0.14-1.28,0.21-2.13,0.36
						C55.12,71.09,55.01,71.67,54.77,72.81z"/>
					<path class="st3" d="M128.48,70.85c0.66-0.94,0.98-1.41,1.62-2.38c-0.86-0.11-1.28-0.17-2.15-0.28
						C128.17,69.26,128.27,69.79,128.48,70.85z"/>
					<path class="st3" d="M55.93,76.55c-0.81,0.18-1.22,0.28-2.03,0.47c0.92-4.61,1.4-6.91,2.39-11.52c0.8-0.11,1.19-0.16,1.98-0.26
						c0.11-0.02,0.23-0.41,0.27-0.62c0.35-1.72,0.53-2.57,0.9-4.29c0.08-0.39,0.04-0.59-0.05-0.59c-3.24,0.26-4.86,0.41-8.11,0.71
						c-0.13,0.02-0.27,0.38-0.34,0.68c-0.46,1.97-0.69,2.97-1.14,4.94c-0.07,0.29-0.03,0.38,0.06,0.37
						c0.72-0.11,1.08-0.17,1.81-0.28c-0.3,1.34-0.45,2.02-0.75,3.37c-1.73,0.32-2.59,0.48-4.32,0.83c0.32-1.41,0.48-2.12,0.81-3.52
						c0.68-0.11,1.03-0.17,1.71-0.28c0.14-0.02,0.25-0.14,0.32-0.47c0.47-2.03,0.7-3.03,1.17-5.06c0.07-0.29,0.08-0.53-0.02-0.51
						c-3.29,0.32-4.93,0.5-8.21,0.87c-0.06,0.01-0.16,0.26-0.22,0.52c-0.54,2.2-0.8,3.3-1.33,5.49c-0.11,0.47-0.09,0.61-0.02,0.59
						c0.83-0.16,1.24-0.23,2.06-0.38c-0.47,1.99-0.85,3.61-1.19,5.13c-0.84,0.2-1.26,0.3-2.11,0.5c0.53,1.14,0.8,1.7,1.36,2.78
						c-0.32,1.44-0.67,2.99-1.08,4.86c-0.86,0.27-1.28,0.41-2.14,0.7c-0.05,0.02-0.16,0.29-0.2,0.47c-0.53,2.39-0.79,3.59-1.3,5.98
						c-0.08,0.36-0.05,0.49-0.01,0.47c3.53-1.43,5.33-2.08,8.93-3.29c0.07-0.02,0.17-0.18,0.22-0.41c0.47-2.24,0.7-3.36,1.18-5.59
						c0.05-0.2,0.03-0.32-0.02-0.3c-0.77,0.22-1.16,0.32-1.94,0.55c0.32-1.45,0.47-2.18,0.8-3.63c1.76-0.45,2.63-0.67,4.41-1.07
						c-0.3,1.39-0.44,2.08-0.74,3.47c-0.78,0.2-1.16,0.31-1.94,0.53c-0.07,0.02-0.14,0.17-0.19,0.39c-0.46,2.14-0.68,3.21-1.13,5.34
						c-0.09,0.43-0.07,0.54,0.04,0.5c3.59-1.19,5.41-1.73,9.05-2.72c0.14-0.04,0.23-0.17,0.29-0.53c0.35-1.86,0.53-2.79,0.89-4.65
						C56.19,76.55,56.08,76.52,55.93,76.55z"/>
					<path class="st3" d="M74.51,69.8c-1.37,0.15-2.06,0.23-3.44,0.39c-0.15,0.02-0.22,0.32-0.26,0.56
						c-0.19,1.31-0.29,1.97-0.47,3.28c-2.24,0.32-3.37,0.5-5.61,0.9c0.19-1.13,0.29-1.7,0.47-2.82c1.17-0.19,1.76-0.27,2.94-0.44
						c0.11-0.02,0.23-0.09,0.27-0.31c0.27-1.72,0.41-2.57,0.68-4.29c0.04-0.22,0.01-0.27-0.08-0.26c-1.18,0.14-1.77,0.2-2.95,0.35
						c0.19-1.06,0.28-1.59,0.47-2.66c2.09-0.22,3.13-0.32,5.22-0.5c-0.2,1.36-0.31,2.03-0.5,3.39c-0.03,0.19,0.03,0.18,0.09,0.17
						c1.27-0.14,1.91-0.2,3.18-0.32c0.09-0.01,0.14-0.2,0.18-0.46c0.39-3,0.59-4.5,0.99-7.51c0.05-0.4,0.04-0.58-0.12-0.57
						c-5.8,0.28-8.71,0.46-14.51,0.91c-0.13,0.01-0.24,0.14-0.27,0.29c-0.42,2.03-0.63,3.04-1.04,5.07
						c-0.08,0.35-0.01,0.29,0.07,0.28c0.82-0.11,1.23-0.16,2.05-0.26c-0.3,1.55-0.55,2.83-0.77,4.02c-0.85,0.13-1.28,0.2-2.12,0.33
						c0.63,0.96,0.96,1.44,1.61,2.36c-0.23,1.23-0.48,2.54-0.77,4.15c-0.86,0.17-1.29,0.26-2.15,0.45
						c-0.08,0.02-0.19,0.27-0.24,0.53c-0.36,1.88-0.53,2.81-0.89,4.68c-0.07,0.35,0.06,0.29,0.18,0.26
						c6.6-1.69,9.93-2.36,16.63-3.36c0.19-0.03,0.25-0.22,0.27-0.4c0.38-3.1,0.56-4.65,0.95-7.76C74.6,69.92,74.58,69.79,74.51,69.8
						z"/>
					<path class="st3" d="M131.65,75.77c-0.11-0.53-0.24-0.61-0.38-0.63c-0.82-0.15-1.22-0.23-2.04-0.37
						c-0.83-4.29-1.25-6.43-2.12-10.72c0.8,0.08,1.19,0.11,1.99,0.2c0.12,0.02,0.07-0.36,0.02-0.56c-0.35-1.66-0.53-2.49-0.89-4.15
						c-0.08-0.38-0.21-0.59-0.3-0.59c-3.24-0.18-4.87-0.26-8.12-0.39c-0.14-0.01-0.13,0.29-0.09,0.53c0.29,1.64,0.43,2.45,0.71,4.09
						c0.05,0.24,0.12,0.33,0.21,0.34c0.73,0.05,1.1,0.08,1.82,0.14c0.21,1.16,0.32,1.73,0.53,2.88c-1.75-0.17-2.62-0.26-4.37-0.4
						c-0.18-1.12-0.27-1.68-0.45-2.8c0.69,0.05,1.04,0.07,1.73,0.12c0.14,0.01,0.21-0.07,0.17-0.34c-0.29-1.67-0.43-2.5-0.72-4.16
						c-0.05-0.25-0.12-0.44-0.23-0.44c-3.3-0.13-4.94-0.18-8.24-0.26c-0.06,0-0.08,0.18-0.05,0.36c0.19,1.56,0.29,2.34,0.47,3.9
						c0.04,0.34,0.11,0.44,0.19,0.44c0.84,0.04,1.26,0.06,2.09,0.1c0.2,1.46,0.35,2.66,0.5,3.78c-0.85-0.06-1.28-0.08-2.13-0.14
						c0.97,1,1.46,1.52,2.45,2.53c0.14,1.07,0.29,2.21,0.47,3.6c-0.89-0.08-1.34-0.13-2.22-0.2c-0.06-0.01-0.08,0.17-0.07,0.3
						c0.2,1.7,0.29,2.54,0.49,4.24c0.03,0.26,0.1,0.37,0.15,0.37c3.72,0.38,5.59,0.62,9.3,1.22c0.07,0.01,0.13-0.08,0.1-0.27
						c-0.29-1.84-0.44-2.76-0.74-4.6c-0.03-0.17-0.08-0.28-0.14-0.29c-0.8-0.11-1.19-0.16-1.99-0.26c-0.18-1.16-0.26-1.73-0.44-2.88
						c1.79,0.19,2.69,0.29,4.49,0.53c0.21,1.19,0.32,1.78,0.52,2.97c-0.8-0.11-1.19-0.17-1.98-0.28c-0.07-0.01-0.1,0.09-0.07,0.29
						c0.29,1.76,0.44,2.65,0.72,4.42c0.06,0.35,0.12,0.47,0.23,0.49c3.7,0.61,5.55,0.98,9.23,1.8c0.14,0.03,0.18-0.07,0.11-0.42
						C132.19,78.47,132.01,77.57,131.65,75.77z"/>
					<path class="st3" d="M148.35,75.34c-0.11-0.48-0.2-0.66-0.26-0.68c-1.34-0.33-2.02-0.48-3.38-0.79
						c-0.15-0.03-0.09,0.32-0.02,0.62c0.38,1.61,0.57,2.42,0.95,4.05c-2.2-0.59-3.31-0.87-5.52-1.4c-0.29-1.27-0.43-1.9-0.71-3.17
						c1.16,0.24,1.75,0.37,2.91,0.63c0.11,0.02,0.21-0.02,0.15-0.27c-0.47-2.03-0.71-3.05-1.19-5.08c-0.06-0.26-0.11-0.33-0.2-0.35
						c-1.17-0.2-1.76-0.29-2.93-0.48c-0.28-1.19-0.41-1.79-0.7-2.98c2.08,0.27,3.12,0.41,5.19,0.72c0.41,1.67,0.62,2.5,1.01,4.17
						c0.05,0.23,0.11,0.24,0.17,0.26c1.25,0.24,1.88,0.37,3.14,0.62c0.09,0.02,0.06-0.22-0.02-0.56c-0.96-3.91-1.45-5.87-2.45-9.78
						c-0.14-0.52-0.24-0.76-0.39-0.77c-5.8-0.52-8.69-0.73-14.5-1.07c-0.13-0.01-0.2,0.11-0.16,0.26c0.44,2,0.66,3.01,1.1,5.02
						c0.08,0.35,0.12,0.3,0.19,0.31c0.82,0.09,1.23,0.14,2.06,0.23c0.36,1.6,0.65,2.91,0.92,4.15c-0.83-0.13-1.26-0.19-2.11-0.31
						c1.07,1.2,1.63,1.82,2.71,3.06c0.28,1.28,0.57,2.64,0.92,4.31c-0.86-0.18-1.29-0.27-2.16-0.44c-0.08-0.02-0.1,0.21-0.04,0.47
						c0.38,1.85,0.57,2.78,0.94,4.65c0.07,0.35,0.18,0.35,0.31,0.38c6.61,1.58,9.9,2.54,16.38,4.81c0.18,0.06,0.17-0.17,0.11-0.41
						C149.8,81.44,149.32,79.41,148.35,75.34z"/>
					<path class="st3" d="M94.26,58.16c-2.49,0.02-3.75,0.05-6.24,0.11c-0.06,0-0.14,0.26-0.15,0.56c-0.08,1.54-0.11,2.31-0.19,3.85
						c-0.01,0.2,0.06,0.32,0.2,0.32c0.8-0.03,1.19-0.04,1.99-0.06c-0.08,2.57-0.13,3.85-0.21,6.42c-1.81-4.26-2.64-6.39-4.14-10.71
						c-0.08-0.17-0.17-0.3-0.25-0.29c-3.1,0.09-4.65,0.14-7.76,0.29c-0.13,0.01-0.23,0.14-0.27,0.4c-0.2,1.63-0.3,2.45-0.5,4.08
						c-0.05,0.39,0.03,0.47,0.1,0.46c0.81-0.06,1.22-0.08,2.03-0.14c-0.42,3.84-0.62,5.77-1.02,9.6c-0.83,0.09-1.25,0.14-2.09,0.23
						c-0.2,0.02-0.27,0.29-0.29,0.5c-0.18,1.58-0.28,2.36-0.46,3.94c-0.04,0.34-0.01,0.52,0.09,0.5c2.88-0.4,4.33-0.56,7.22-0.82
						c0.12-0.01,0.21-0.2,0.24-0.58c0.11-1.54,0.17-2.3,0.29-3.84c0.02-0.26-0.1-0.37-0.21-0.36c-0.89,0.07-1.34,0.11-2.22,0.19
						c0.27-3.01,0.41-4.52,0.68-7.53c1.61,4.74,2.51,7.06,4.49,11.69c0.06,0.14,0.17,0.17,0.24,0.16c2.45-0.17,3.68-0.23,6.13-0.31
						c0.13,0,0.18-0.26,0.19-0.68c0.08-5.29,0.11-7.94,0.2-13.24c0.77-0.02,1.16-0.02,1.93-0.03c0.12,0,0.21-0.13,0.21-0.45
						c0-1.45,0-2.17,0-3.62C94.46,58.53,94.42,58.16,94.26,58.16z"/>
					<path class="st3" d="M168.13,92.19c-1.64-7.48-3.39-14.96-5.26-22.4c0.75,0.17,1.13,0.25,1.88,0.41
						c0.11,0.02,0.15-0.17,0.02-0.73c-0.62-2.51-0.94-3.77-1.58-6.28c-0.11-0.43-0.31-1.08-0.47-1.1c-2.48-0.32-3.72-0.47-6.21-0.74
						c-0.06-0.01-0.02,0.38,0.11,0.86c0.64,2.44,0.95,3.66,1.57,6.1c0.08,0.32,0.2,0.53,0.34,0.56c0.78,0.16,1.17,0.24,1.95,0.4
						c1.05,4.2,1.57,6.3,2.57,10.5c-2.81-6.14-5.78-12.24-8.89-18.24c-0.16-0.28-0.3-0.48-0.39-0.49c-3.09-0.34-4.64-0.49-7.74-0.77
						c-0.13-0.02-0.17,0.16-0.08,0.5c0.56,2.18,0.84,3.27,1.39,5.45c0.14,0.53,0.25,0.65,0.31,0.65c0.8,0.14,1.2,0.2,2,0.34
						c1.34,5.33,2,7.99,3.26,13.32c-0.81-0.25-1.21-0.38-2.02-0.62c-0.19-0.05-0.15,0.28-0.08,0.56c0.5,2.11,0.74,3.17,1.22,5.28
						c0.11,0.46,0.21,0.72,0.3,0.75c2.77,1.01,4.15,1.55,6.89,2.68c0.11,0.05,0.13-0.19,0-0.76c-0.53-2.3-0.8-3.45-1.34-5.76
						c-0.09-0.38-0.26-0.61-0.37-0.65c-0.86-0.29-1.28-0.44-2.14-0.71c-1.03-4.35-1.55-6.52-2.64-10.86
						c3.33,6.49,6.49,13.1,9.48,19.76c0.12,0.26,0.23,0.35,0.29,0.38c2.3,1.01,3.44,1.54,5.71,2.63
						C168.33,93.3,168.29,92.9,168.13,92.19z"/>
				</g>
				<g>
					<g>
						<defs>
							<path id="SVGID_13_" d="M36.12,72.22c-0.39-0.37-2.3-0.62-3.18-0.41c-0.68,0.14-1.01,0.2-1.68,0.33
								c-0.35,0.09-1.44,0.44-0.96-1.61c0.45-1.92,1.13-2.18,1.35-2.22c1.08-0.22,1.62-0.32,2.71-0.53c0.29-0.05,1.12,0.27,0.89,2.4
								c-0.03,0.19,0.02,0.18,0.05,0.17c1.18-0.26,1.76-0.39,2.95-0.64c0.08-0.02,0.16-0.21,0.23-0.47
								c0.65-2.71,0.97-4.07,1.64-6.78c0.06-0.26,0.13-0.77-0.04-0.75c-0.95,0.11-1.43,0.17-2.39,0.29
								c-0.07,0.01-0.17,0.14-0.27,0.44c-0.21,0.69-0.32,1.04-0.53,1.74c-0.23-0.82-0.75-2.03-1.96-1.87
								c-0.95,0.13-1.43,0.19-2.39,0.32c-1.4,0.19-2.83,1.46-3.84,3.19c-0.76,1.31-2.33,4.05-3.32,8.36
								c-0.7,3.06-0.87,6.82,0.17,8.24c0.58,0.79,2.47,0.97,3.17,0.72c1.03-0.37,1.59-0.53,2.62-0.88c0.13-0.05,0.54,0.2,0.22,1.67
								c-0.28,1.28-0.89,1.73-0.98,1.76c-1.33,0.52-1.99,0.79-3.3,1.34c-0.1,0.05-1.55,0.5-1.13-2.16c0.05-0.29,0.04-0.44-0.04-0.41
								c-1.29,0.5-1.94,0.77-3.22,1.29c-0.08,0.03-0.17,0.35-0.21,0.56c-0.75,3.53-1.11,5.29-1.82,8.82
								c-0.07,0.35-0.08,0.5-0.02,0.47c1.23-0.65,1.85-0.96,3.1-1.58c0.07-0.03,0.14-0.14,0.23-0.48c0.23-0.96,0.33-1.46,0.56-2.43
								c0.36,1.07,1.17,1.96,2.21,1.46c1-0.47,1.5-0.71,2.51-1.16c1.33-0.6,5.39-3.43,7.28-11.86
								C38.02,73.67,36.51,72.58,36.12,72.22z"/>
						</defs>
						<clipPath id="SVGID_14_">
							<use xlink:href="#SVGID_13_"  style="overflow:visible;"/>
						</clipPath>
						<path class="st17" d="M37.6,74.1c-0.39-0.37-2.3-0.62-3.18-0.41c-0.67,0.13-1.01,0.2-1.67,0.33
							c-0.35,0.09-1.44,0.43-0.95-1.61c0.45-1.92,1.13-2.18,1.35-2.21c1.08-0.22,1.62-0.32,2.69-0.53c0.29-0.05,1.12,0.27,0.89,2.4
							c-0.03,0.19,0.02,0.18,0.05,0.17c1.17-0.26,1.76-0.38,2.94-0.62c0.08-0.02,0.16-0.21,0.23-0.47c0.65-2.71,0.98-4.07,1.64-6.78
							c0.06-0.26,0.13-0.77-0.04-0.75c-0.95,0.11-1.43,0.17-2.37,0.29c-0.07,0.01-0.17,0.14-0.27,0.44
							c-0.21,0.69-0.32,1.04-0.54,1.74c-0.23-0.82-0.74-2.03-1.95-1.88c-0.95,0.12-1.43,0.18-2.38,0.31
							c-1.4,0.19-2.82,1.45-3.83,3.18c-0.76,1.31-2.33,4.04-3.32,8.35c-0.7,3.06-0.89,6.82,0.16,8.24c0.58,0.79,2.46,0.98,3.15,0.73
							c1.03-0.36,1.58-0.52,2.61-0.87c0.13-0.05,0.54,0.2,0.22,1.67c-0.29,1.28-0.89,1.73-0.98,1.76c-1.32,0.52-1.98,0.78-3.3,1.32
							c-0.1,0.05-1.54,0.5-1.13-2.16c0.05-0.29,0.04-0.44-0.04-0.41c-1.29,0.5-1.93,0.76-3.21,1.28c-0.08,0.03-0.17,0.35-0.21,0.56
							c-0.75,3.52-1.12,5.28-1.83,8.81c-0.07,0.35-0.08,0.5-0.02,0.47c1.23-0.64,1.85-0.96,3.09-1.58c0.07-0.03,0.14-0.14,0.23-0.48
							c0.23-0.96,0.33-1.46,0.56-2.43c0.36,1.07,1.16,1.97,2.2,1.47c1-0.47,1.5-0.7,2.5-1.16c1.32-0.6,5.37-3.42,7.27-11.84
							C39.5,75.56,37.99,74.47,37.6,74.1z"/>
					</g>
					<g>
						<defs>
							<path id="SVGID_15_" d="M36.12,72.22c-0.39-0.37-2.3-0.62-3.18-0.41c-0.68,0.14-1.01,0.2-1.68,0.33
								c-0.35,0.09-1.44,0.44-0.96-1.61c0.45-1.92,1.13-2.18,1.35-2.22c1.08-0.22,1.62-0.32,2.71-0.53c0.29-0.05,1.12,0.27,0.89,2.4
								c-0.03,0.19,0.02,0.18,0.05,0.17c1.18-0.26,1.76-0.39,2.95-0.64c0.08-0.02,0.16-0.21,0.23-0.47
								c0.65-2.71,0.97-4.07,1.64-6.78c0.06-0.26,0.13-0.77-0.04-0.75c-0.95,0.11-1.43,0.17-2.39,0.29
								c-0.07,0.01-0.17,0.14-0.27,0.44c-0.21,0.69-0.32,1.04-0.53,1.74c-0.23-0.82-0.75-2.03-1.96-1.87
								c-0.95,0.13-1.43,0.19-2.39,0.32c-1.4,0.19-2.83,1.46-3.84,3.19c-0.76,1.31-2.33,4.05-3.32,8.36
								c-0.7,3.06-0.87,6.82,0.17,8.24c0.58,0.79,2.47,0.97,3.17,0.72c1.03-0.37,1.59-0.53,2.62-0.88c0.13-0.05,0.54,0.2,0.22,1.67
								c-0.28,1.28-0.89,1.73-0.98,1.76c-1.33,0.52-1.99,0.79-3.3,1.34c-0.1,0.05-1.55,0.5-1.13-2.16c0.05-0.29,0.04-0.44-0.04-0.41
								c-1.29,0.5-1.94,0.77-3.22,1.29c-0.08,0.03-0.17,0.35-0.21,0.56c-0.75,3.53-1.11,5.29-1.82,8.82
								c-0.07,0.35-0.08,0.5-0.02,0.47c1.23-0.65,1.85-0.96,3.1-1.58c0.07-0.03,0.14-0.14,0.23-0.48c0.23-0.96,0.33-1.46,0.56-2.43
								c0.36,1.07,1.17,1.96,2.21,1.46c1-0.47,1.5-0.71,2.51-1.16c1.33-0.6,5.39-3.43,7.28-11.86
								C38.02,73.67,36.51,72.58,36.12,72.22z"/>
						</defs>
						<clipPath id="SVGID_16_">
							<use xlink:href="#SVGID_15_"  style="overflow:visible;"/>
						</clipPath>
						<path class="st18" d="M181.11,81.31c-26.15-8.27-54.59-15.76-81.9-15.79c-26.99-0.02-55.23,7.54-81.06,15.79
							c-1.23-8.27-2.45-16.55-3.69-24.82c56.78-9.07,113.55-9.07,170.33,0C183.56,64.77,182.33,73.04,181.11,81.31z"/>
					</g>
				</g>
				<g>
					<g>
						<defs>
							<path id="SVGID_17_" d="M110.83,69.37c-0.02-0.2-0.12-0.26-0.2-0.26c-1.21-0.08-1.82-0.11-3.03-0.17
								c-0.1-0.01-0.11,0.17-0.11,0.29c0.11,1.23,0.17,1.85,0.27,3.08c-1.19-0.07-1.79-0.1-2.98-0.15c0-0.02,0-0.03,0-0.05
								c2.18-5.24,3.15-7.87,4.85-13.27c0.05-0.13-0.02-0.62-0.14-0.62c-5.33-0.11-7.99-0.12-13.33-0.08
								c-0.09,0-0.16,0.15-0.15,0.47c0.04,2.95,0.05,4.43,0.09,7.38c0,0.15,0.05,0.25,0.16,0.25c1.07-0.01,1.61-0.01,2.67,0
								c0.09,0,0.12-0.2,0.11-0.44c-0.04-1.18-0.06-1.77-0.1-2.95c1.14,0,1.71,0.01,2.85,0.02c0,0.02,0,0.03,0,0.05
								c-2.14,5.37-3.34,8.03-5.96,13.42c-0.03,0.08-0.01,0.38,0.05,0.37c6.26-0.04,9.4,0.1,15.64,0.67
								c0.12,0.01,0.14-0.11,0.11-0.42C111.32,73.93,111.16,72.41,110.83,69.37z"/>
						</defs>
						<clipPath id="SVGID_18_">
							<use xlink:href="#SVGID_17_"  style="overflow:visible;"/>
						</clipPath>
						<path class="st19" d="M112.05,71.46c-0.02-0.2-0.12-0.26-0.2-0.26c-1.2-0.08-1.81-0.11-3.02-0.17
							c-0.09-0.01-0.11,0.17-0.11,0.29c0.11,1.23,0.16,1.85,0.26,3.08c-1.19-0.08-1.78-0.11-2.97-0.16c0-0.02,0-0.03,0-0.05
							c2.18-5.23,3.16-7.86,4.86-13.26c0.05-0.13-0.02-0.62-0.14-0.62c-5.31-0.12-7.96-0.14-13.28-0.12c-0.09,0,4.47,4.72,5.61,4.74
							c0,0.02,0,0.03,0,0.05c-2.15,5.37-3.35,8.02-5.97,13.41c-0.03,0.08-0.01,0.38,0.05,0.37c6.23-0.03,9.36,0.12,15.58,0.71
							c0.12,0.01,0.14-0.11,0.11-0.42C112.53,76.02,112.37,74.5,112.05,71.46z"/>
					</g>
					<g>
						<defs>
							<path id="SVGID_19_" d="M110.83,69.37c-0.02-0.2-0.12-0.26-0.2-0.26c-1.21-0.08-1.82-0.11-3.03-0.17
								c-0.1-0.01-0.11,0.17-0.11,0.29c0.11,1.23,0.17,1.85,0.27,3.08c-1.19-0.07-1.79-0.1-2.98-0.15c0-0.02,0-0.03,0-0.05
								c2.18-5.24,3.15-7.87,4.85-13.27c0.05-0.13-0.02-0.62-0.14-0.62c-5.33-0.11-7.99-0.12-13.33-0.08
								c-0.09,0-0.16,0.15-0.15,0.47c0.04,2.95,0.05,4.43,0.09,7.38c0,0.15,0.05,0.25,0.16,0.25c1.07-0.01,1.61-0.01,2.67,0
								c0.09,0,0.12-0.2,0.11-0.44c-0.04-1.18-0.06-1.77-0.1-2.95c1.14,0,1.71,0.01,2.85,0.02c0,0.02,0,0.03,0,0.05
								c-2.14,5.37-3.34,8.03-5.96,13.42c-0.03,0.08-0.01,0.38,0.05,0.37c6.26-0.04,9.4,0.1,15.64,0.67
								c0.12,0.01,0.14-0.11,0.11-0.42C111.32,73.93,111.16,72.41,110.83,69.37z"/>
						</defs>
						<clipPath id="SVGID_20_">
							<use xlink:href="#SVGID_19_"  style="overflow:visible;"/>
						</clipPath>
						<path class="st20" d="M181.11,81.31c-26.15-8.27-54.59-15.76-81.9-15.79c-26.99-0.02-55.23,7.54-81.06,15.79
							c-1.23-8.27-2.45-16.55-3.69-24.82c56.78-9.07,113.55-9.07,170.33,0C183.56,64.77,182.33,73.04,181.11,81.31z"/>
					</g>
				</g>
				<path class="st3" d="M54.77,72.81c1.1-1.31,1.64-1.96,2.72-3.22c-0.86,0.14-1.28,0.21-2.13,0.36
					C55.12,71.09,55.01,71.67,54.77,72.81z"/>
				<path class="st3" d="M128.48,70.85c0.66-0.94,0.98-1.41,1.62-2.38c-0.86-0.11-1.28-0.17-2.15-0.28
					C128.17,69.26,128.27,69.79,128.48,70.85z"/>
				<g>
					<g>
						<defs>
							<path id="SVGID_21_" d="M55.93,76.55c-0.81,0.18-1.22,0.28-2.03,0.47c0.92-4.61,1.4-6.91,2.39-11.52
								c0.8-0.11,1.19-0.16,1.98-0.26c0.11-0.02,0.23-0.41,0.27-0.62c0.35-1.72,0.53-2.57,0.9-4.29c0.08-0.39,0.04-0.59-0.05-0.59
								c-3.24,0.26-4.86,0.41-8.11,0.71c-0.13,0.02-0.27,0.38-0.34,0.68c-0.46,1.97-0.69,2.97-1.14,4.94
								c-0.07,0.29-0.03,0.38,0.06,0.37c0.72-0.11,1.08-0.17,1.81-0.28c-0.3,1.34-0.45,2.02-0.75,3.37
								c-1.73,0.32-2.59,0.48-4.32,0.83c0.32-1.41,0.48-2.12,0.81-3.52c0.68-0.11,1.03-0.17,1.71-0.28
								c0.14-0.02,0.25-0.14,0.32-0.47c0.47-2.03,0.7-3.03,1.17-5.06c0.07-0.29,0.08-0.53-0.02-0.51c-3.29,0.32-4.93,0.5-8.21,0.87
								c-0.06,0.01-0.16,0.26-0.22,0.52c-0.54,2.2-0.8,3.3-1.33,5.49c-0.11,0.47-0.09,0.61-0.02,0.59c0.83-0.16,1.24-0.23,2.06-0.38
								c-0.47,1.99-0.85,3.61-1.19,5.13c-0.84,0.2-1.26,0.3-2.11,0.5c0.53,1.14,0.8,1.7,1.36,2.78c-0.32,1.44-0.67,2.99-1.08,4.86
								c-0.86,0.27-1.28,0.41-2.14,0.7c-0.05,0.02-0.16,0.29-0.2,0.47c-0.53,2.39-0.79,3.59-1.3,5.98
								c-0.08,0.36-0.05,0.49-0.01,0.47c3.53-1.43,5.33-2.08,8.93-3.29c0.07-0.02,0.17-0.18,0.22-0.41c0.47-2.24,0.7-3.36,1.18-5.59
								c0.05-0.2,0.03-0.32-0.02-0.3c-0.77,0.22-1.16,0.32-1.94,0.55c0.32-1.45,0.47-2.18,0.8-3.63c1.76-0.45,2.63-0.67,4.41-1.07
								c-0.3,1.39-0.44,2.08-0.74,3.47c-0.78,0.2-1.16,0.31-1.94,0.53c-0.07,0.02-0.14,0.17-0.19,0.39
								c-0.46,2.14-0.68,3.21-1.13,5.34c-0.09,0.43-0.07,0.54,0.04,0.5c3.59-1.19,5.41-1.73,9.05-2.72
								c0.14-0.04,0.23-0.17,0.29-0.53c0.35-1.86,0.53-2.79,0.89-4.65C56.19,76.55,56.08,76.52,55.93,76.55z"/>
						</defs>
						<clipPath id="SVGID_22_">
							<use xlink:href="#SVGID_21_"  style="overflow:visible;"/>
						</clipPath>
						<path class="st21" d="M57.34,78.5c-0.81,0.18-1.21,0.27-2.02,0.46c0.93-4.6,1.41-6.91,2.39-11.51
							c0.79-0.11,1.19-0.16,1.97-0.26c0.11-0.02,0.23-0.41,0.27-0.62c0.35-1.71,0.54-2.57,0.9-4.29c0.08-0.39,0.04-0.59-0.05-0.59
							c-3.24,0.26-4.85,0.39-8.08,0.69c-0.13,0.02-0.27,0.38-0.34,0.67c-0.47,1.98-0.69,2.97-1.14,4.94
							c-0.07,0.29-0.03,0.38,0.06,0.37c0.72-0.11,1.08-0.17,1.8-0.28c-0.3,1.34-0.45,2.02-0.75,3.36c-1.73,0.32-2.58,0.48-4.3,0.82
							c0.32-1.41,0.48-2.12,0.81-3.52c0.68-0.11,1.03-0.17,1.71-0.28c0.14-0.02,0.25-0.14,0.32-0.47c0.47-2.02,0.7-3.03,1.18-5.05
							c0.07-0.29,0.08-0.52-0.02-0.51c-3.27,0.31-4.91,0.48-8.18,0.85c-0.06,0.01-0.16,0.26-0.22,0.52c-0.54,2.2-0.8,3.3-1.33,5.49
							c-0.11,0.47-0.1,0.61-0.02,0.59c0.83-0.15,1.23-0.23,2.06-0.38c-0.47,1.99-0.85,3.6-1.2,5.13c-0.84,0.2-1.26,0.29-2.1,0.5
							c0.53,1.14,0.8,1.7,1.34,2.78c-0.33,1.44-0.68,2.98-1.09,4.86c-0.86,0.27-1.28,0.41-2.13,0.69c-0.05,0.02-0.16,0.29-0.2,0.47
							c-0.53,2.39-0.79,3.58-1.31,5.98c-0.08,0.36-0.05,0.48-0.01,0.47c3.53-1.41,5.31-2.06,8.9-3.27c0.07-0.02,0.17-0.18,0.22-0.41
							c0.47-2.24,0.71-3.36,1.19-5.59c0.05-0.2,0.03-0.32-0.02-0.3c-0.77,0.21-1.16,0.32-1.93,0.55c0.32-1.45,0.47-2.18,0.8-3.63
							c1.75-0.44,2.63-0.65,4.39-1.06c-0.3,1.39-0.45,2.08-0.74,3.46c-0.77,0.2-1.16,0.31-1.94,0.52c-0.07,0.02-0.14,0.17-0.19,0.39
							c-0.46,2.13-0.68,3.21-1.13,5.34c-0.09,0.43-0.07,0.54,0.04,0.5c3.58-1.19,5.39-1.72,9.02-2.69c0.14-0.04,0.23-0.17,0.29-0.53
							c0.35-1.86,0.53-2.79,0.9-4.65C57.59,78.5,57.48,78.47,57.34,78.5z"/>
					</g>
					<g>
						<defs>
							<path id="SVGID_23_" d="M55.93,76.55c-0.81,0.18-1.22,0.28-2.03,0.47c0.92-4.61,1.4-6.91,2.39-11.52
								c0.8-0.11,1.19-0.16,1.98-0.26c0.11-0.02,0.23-0.41,0.27-0.62c0.35-1.72,0.53-2.57,0.9-4.29c0.08-0.39,0.04-0.59-0.05-0.59
								c-3.24,0.26-4.86,0.41-8.11,0.71c-0.13,0.02-0.27,0.38-0.34,0.68c-0.46,1.97-0.69,2.97-1.14,4.94
								c-0.07,0.29-0.03,0.38,0.06,0.37c0.72-0.11,1.08-0.17,1.81-0.28c-0.3,1.34-0.45,2.02-0.75,3.37
								c-1.73,0.32-2.59,0.48-4.32,0.83c0.32-1.41,0.48-2.12,0.81-3.52c0.68-0.11,1.03-0.17,1.71-0.28
								c0.14-0.02,0.25-0.14,0.32-0.47c0.47-2.03,0.7-3.03,1.17-5.06c0.07-0.29,0.08-0.53-0.02-0.51c-3.29,0.32-4.93,0.5-8.21,0.87
								c-0.06,0.01-0.16,0.26-0.22,0.52c-0.54,2.2-0.8,3.3-1.33,5.49c-0.11,0.47-0.09,0.61-0.02,0.59c0.83-0.16,1.24-0.23,2.06-0.38
								c-0.47,1.99-0.85,3.61-1.19,5.13c-0.84,0.2-1.26,0.3-2.11,0.5c0.53,1.14,0.8,1.7,1.36,2.78c-0.32,1.44-0.67,2.99-1.08,4.86
								c-0.86,0.27-1.28,0.41-2.14,0.7c-0.05,0.02-0.16,0.29-0.2,0.47c-0.53,2.39-0.79,3.59-1.3,5.98
								c-0.08,0.36-0.05,0.49-0.01,0.47c3.53-1.43,5.33-2.08,8.93-3.29c0.07-0.02,0.17-0.18,0.22-0.41c0.47-2.24,0.7-3.36,1.18-5.59
								c0.05-0.2,0.03-0.32-0.02-0.3c-0.77,0.22-1.16,0.32-1.94,0.55c0.32-1.45,0.47-2.18,0.8-3.63c1.76-0.45,2.63-0.67,4.41-1.07
								c-0.3,1.39-0.44,2.08-0.74,3.47c-0.78,0.2-1.16,0.31-1.94,0.53c-0.07,0.02-0.14,0.17-0.19,0.39
								c-0.46,2.14-0.68,3.21-1.13,5.34c-0.09,0.43-0.07,0.54,0.04,0.5c3.59-1.19,5.41-1.73,9.05-2.72
								c0.14-0.04,0.23-0.17,0.29-0.53c0.35-1.86,0.53-2.79,0.89-4.65C56.19,76.55,56.08,76.52,55.93,76.55z"/>
						</defs>
						<clipPath id="SVGID_24_">
							<use xlink:href="#SVGID_23_"  style="overflow:visible;"/>
						</clipPath>
						<path class="st22" d="M181.11,81.31c-26.15-8.27-54.59-15.76-81.9-15.79c-26.99-0.02-55.23,7.54-81.06,15.79
							c-1.23-8.27-2.45-16.55-3.69-24.82c56.78-9.07,113.55-9.07,170.33,0C183.56,64.77,182.33,73.04,181.11,81.31z"/>
					</g>
				</g>
				<g>
					<g>
						<defs>
							<path id="SVGID_25_" d="M74.51,69.8c-1.37,0.15-2.06,0.23-3.44,0.39c-0.15,0.02-0.22,0.32-0.26,0.56
								c-0.19,1.31-0.29,1.97-0.47,3.28c-2.24,0.32-3.37,0.5-5.61,0.9c0.19-1.13,0.29-1.7,0.47-2.82c1.17-0.19,1.76-0.27,2.94-0.44
								c0.11-0.02,0.23-0.09,0.27-0.31c0.27-1.72,0.41-2.57,0.68-4.29c0.04-0.22,0.01-0.27-0.08-0.26c-1.18,0.14-1.77,0.2-2.95,0.35
								c0.19-1.06,0.28-1.59,0.47-2.66c2.09-0.22,3.13-0.32,5.22-0.5c-0.2,1.36-0.31,2.03-0.5,3.39c-0.03,0.19,0.03,0.18,0.09,0.17
								c1.27-0.14,1.91-0.2,3.18-0.32c0.09-0.01,0.14-0.2,0.18-0.46c0.39-3,0.59-4.5,0.99-7.51c0.05-0.4,0.04-0.58-0.12-0.57
								c-5.8,0.28-8.71,0.46-14.51,0.91c-0.13,0.01-0.24,0.14-0.27,0.29c-0.42,2.03-0.63,3.04-1.04,5.07
								c-0.08,0.35-0.01,0.29,0.07,0.28c0.82-0.11,1.23-0.16,2.05-0.26c-0.3,1.55-0.55,2.83-0.77,4.02
								c-0.85,0.13-1.28,0.2-2.12,0.33c0.63,0.96,0.96,1.44,1.61,2.36c-0.23,1.23-0.48,2.54-0.77,4.15
								c-0.86,0.17-1.29,0.26-2.15,0.45c-0.08,0.02-0.19,0.27-0.24,0.53c-0.36,1.88-0.53,2.81-0.89,4.68
								c-0.07,0.35,0.06,0.29,0.18,0.26c6.6-1.69,9.93-2.36,16.63-3.36c0.19-0.03,0.25-0.22,0.27-0.4c0.38-3.1,0.56-4.65,0.95-7.76
								C74.6,69.92,74.58,69.79,74.51,69.8z"/>
						</defs>
						<clipPath id="SVGID_26_">
							<use xlink:href="#SVGID_25_"  style="overflow:visible;"/>
						</clipPath>
						<path class="st23" d="M75.86,71.79c-1.37,0.14-2.06,0.22-3.42,0.38c-0.15,0.02-0.22,0.32-0.26,0.56
							c-0.2,1.31-0.29,1.97-0.47,3.28c-2.24,0.32-3.36,0.5-5.58,0.88c0.19-1.13,0.29-1.7,0.48-2.82c1.17-0.18,1.76-0.27,2.93-0.43
							c0.11-0.02,0.23-0.08,0.27-0.31c0.27-1.71,0.41-2.57,0.68-4.29c0.04-0.22,0.01-0.27-0.08-0.26c-1.17,0.13-1.76,0.2-2.94,0.34
							c0.19-1.06,0.28-1.59,0.47-2.65c2.08-0.21,3.12-0.31,5.19-0.48c-0.2,1.36-0.31,2.03-0.51,3.39c-0.03,0.19,0.03,0.18,0.09,0.17
							c1.27-0.14,1.9-0.2,3.17-0.32c0.09-0.01,0.14-0.2,0.18-0.46c0.39-3,0.59-4.5,1-7.51c0.05-0.4,0.04-0.58-0.12-0.57
							c-5.79,0.26-8.68,0.44-14.46,0.86c-0.13,0.01-0.24,0.14-0.27,0.29c-0.42,2.03-0.63,3.04-1.04,5.06
							c-0.08,0.35-0.01,0.29,0.07,0.28c0.82-0.1,1.22-0.15,2.04-0.25c-0.3,1.55-0.55,2.82-0.78,4.02c-0.85,0.13-1.27,0.2-2.12,0.32
							c0.63,0.96,0.95,1.44,1.61,2.36c-0.23,1.23-0.48,2.54-0.78,4.15c-0.86,0.17-1.29,0.26-2.15,0.44
							c-0.08,0.02-0.19,0.27-0.24,0.53c-0.36,1.88-0.54,2.81-0.89,4.68c-0.07,0.35,0.05,0.29,0.18,0.26
							c6.58-1.67,9.9-2.33,16.57-3.31c0.19-0.03,0.25-0.22,0.27-0.4c0.38-3.1,0.58-4.65,0.97-7.75
							C75.95,71.92,75.93,71.79,75.86,71.79z"/>
					</g>
					<g>
						<defs>
							<path id="SVGID_27_" d="M74.51,69.8c-1.37,0.15-2.06,0.23-3.44,0.39c-0.15,0.02-0.22,0.32-0.26,0.56
								c-0.19,1.31-0.29,1.97-0.47,3.28c-2.24,0.32-3.37,0.5-5.61,0.9c0.19-1.13,0.29-1.7,0.47-2.82c1.17-0.19,1.76-0.27,2.94-0.44
								c0.11-0.02,0.23-0.09,0.27-0.31c0.27-1.72,0.41-2.57,0.68-4.29c0.04-0.22,0.01-0.27-0.08-0.26c-1.18,0.14-1.77,0.2-2.95,0.35
								c0.19-1.06,0.28-1.59,0.47-2.66c2.09-0.22,3.13-0.32,5.22-0.5c-0.2,1.36-0.31,2.03-0.5,3.39c-0.03,0.19,0.03,0.18,0.09,0.17
								c1.27-0.14,1.91-0.2,3.18-0.32c0.09-0.01,0.14-0.2,0.18-0.46c0.39-3,0.59-4.5,0.99-7.51c0.05-0.4,0.04-0.58-0.12-0.57
								c-5.8,0.28-8.71,0.46-14.51,0.91c-0.13,0.01-0.24,0.14-0.27,0.29c-0.42,2.03-0.63,3.04-1.04,5.07
								c-0.08,0.35-0.01,0.29,0.07,0.28c0.82-0.11,1.23-0.16,2.05-0.26c-0.3,1.55-0.55,2.83-0.77,4.02
								c-0.85,0.13-1.28,0.2-2.12,0.33c0.63,0.96,0.96,1.44,1.61,2.36c-0.23,1.23-0.48,2.54-0.77,4.15
								c-0.86,0.17-1.29,0.26-2.15,0.45c-0.08,0.02-0.19,0.27-0.24,0.53c-0.36,1.88-0.53,2.81-0.89,4.68
								c-0.07,0.35,0.06,0.29,0.18,0.26c6.6-1.69,9.93-2.36,16.63-3.36c0.19-0.03,0.25-0.22,0.27-0.4c0.38-3.1,0.56-4.65,0.95-7.76
								C74.6,69.92,74.58,69.79,74.51,69.8z"/>
						</defs>
						<clipPath id="SVGID_28_">
							<use xlink:href="#SVGID_27_"  style="overflow:visible;"/>
						</clipPath>
						<path class="st24" d="M181.11,81.31c-26.15-8.27-54.59-15.76-81.9-15.79c-26.99-0.02-55.23,7.54-81.06,15.79
							c-1.23-8.27-2.45-16.55-3.69-24.82c56.78-9.07,113.55-9.07,170.33,0C183.56,64.77,182.33,73.04,181.11,81.31z"/>
					</g>
				</g>
				<g>
					<g>
						<defs>
							<path id="SVGID_29_" d="M131.65,75.77c-0.11-0.53-0.24-0.61-0.38-0.63c-0.82-0.15-1.22-0.23-2.04-0.37
								c-0.83-4.29-1.25-6.43-2.12-10.72c0.8,0.08,1.19,0.11,1.99,0.2c0.12,0.02,0.07-0.36,0.02-0.56
								c-0.35-1.66-0.53-2.49-0.89-4.15c-0.08-0.38-0.21-0.59-0.3-0.59c-3.24-0.18-4.87-0.26-8.12-0.39
								c-0.14-0.01-0.13,0.29-0.09,0.53c0.29,1.64,0.43,2.45,0.71,4.09c0.05,0.24,0.12,0.33,0.21,0.34c0.73,0.05,1.1,0.08,1.82,0.14
								c0.21,1.16,0.32,1.73,0.53,2.88c-1.75-0.17-2.62-0.26-4.37-0.4c-0.18-1.12-0.27-1.68-0.45-2.8c0.69,0.05,1.04,0.07,1.73,0.12
								c0.14,0.01,0.21-0.07,0.17-0.34c-0.29-1.67-0.43-2.5-0.72-4.16c-0.05-0.25-0.12-0.44-0.23-0.44
								c-3.3-0.13-4.94-0.18-8.24-0.26c-0.06,0-0.08,0.18-0.05,0.36c0.19,1.56,0.29,2.34,0.47,3.9c0.04,0.34,0.11,0.44,0.19,0.44
								c0.84,0.04,1.26,0.06,2.09,0.1c0.2,1.46,0.35,2.66,0.5,3.78c-0.85-0.06-1.28-0.08-2.13-0.14c0.97,1,1.46,1.52,2.45,2.53
								c0.14,1.07,0.29,2.21,0.47,3.6c-0.89-0.08-1.34-0.13-2.22-0.2c-0.06-0.01-0.08,0.17-0.07,0.3c0.2,1.7,0.29,2.54,0.49,4.24
								c0.03,0.26,0.1,0.37,0.15,0.37c3.72,0.38,5.59,0.62,9.3,1.22c0.07,0.01,0.13-0.08,0.1-0.27c-0.29-1.84-0.44-2.76-0.74-4.6
								c-0.03-0.17-0.08-0.28-0.14-0.29c-0.8-0.11-1.19-0.16-1.99-0.26c-0.18-1.16-0.26-1.73-0.44-2.88
								c1.79,0.19,2.69,0.29,4.49,0.53c0.21,1.19,0.32,1.78,0.52,2.97c-0.8-0.11-1.19-0.17-1.98-0.28c-0.07-0.01-0.1,0.09-0.07,0.29
								c0.29,1.76,0.44,2.65,0.72,4.42c0.06,0.35,0.12,0.47,0.23,0.49c3.7,0.61,5.55,0.98,9.23,1.8c0.14,0.03,0.18-0.07,0.11-0.42
								C132.19,78.47,132.01,77.57,131.65,75.77z"/>
						</defs>
						<clipPath id="SVGID_30_">
							<use xlink:href="#SVGID_29_"  style="overflow:visible;"/>
						</clipPath>
						<path class="st25" d="M132.78,77.91c-0.11-0.53-0.24-0.61-0.38-0.63c-0.81-0.15-1.22-0.23-2.03-0.38
							c-0.82-4.29-1.24-6.44-2.09-10.73c0.8,0.08,1.19,0.12,1.98,0.2c0.11,0.02,0.07-0.36,0.02-0.56c-0.35-1.66-0.52-2.49-0.87-4.15
							c-0.08-0.38-0.21-0.59-0.3-0.59c-3.24-0.19-4.86-0.27-8.09-0.41c-0.13-0.01-0.13,0.29-0.09,0.53
							c0.29,1.64,0.42,2.45,0.71,4.09c0.05,0.24,0.12,0.33,0.21,0.34c0.73,0.05,1.09,0.08,1.82,0.14c0.21,1.16,0.31,1.73,0.52,2.89
							c-1.74-0.18-2.61-0.26-4.35-0.41c-0.17-1.12-0.26-1.68-0.44-2.8c0.69,0.05,1.04,0.08,1.73,0.12c0.14,0.01,0.21-0.07,0.17-0.34
							c-0.28-1.67-0.42-2.5-0.71-4.17c-0.05-0.24-0.12-0.44-0.23-0.44c-3.28-0.14-4.92-0.19-8.21-0.27c-0.06,0-0.08,0.18-0.05,0.36
							c0.19,1.56,0.28,2.34,0.47,3.9c0.04,0.34,0.11,0.44,0.19,0.44c0.83,0.04,1.25,0.06,2.09,0.11c0.2,1.46,0.35,2.66,0.49,3.78
							c-0.84-0.06-1.28-0.09-2.12-0.14c0.96,1.01,1.46,1.52,2.43,2.54c0.14,1.07,0.28,2.21,0.46,3.6c-0.89-0.09-1.33-0.13-2.21-0.2
							c-0.06-0.01-0.08,0.17-0.07,0.3c0.19,1.7,0.29,2.54,0.47,4.24c0.03,0.26,0.1,0.37,0.15,0.37c3.72,0.39,5.57,0.64,9.26,1.25
							c0.07,0.01,0.13-0.08,0.1-0.27c-0.29-1.84-0.44-2.76-0.73-4.6c-0.02-0.17-0.08-0.28-0.14-0.29c-0.79-0.11-1.19-0.16-1.98-0.26
							c-0.17-1.16-0.26-1.73-0.44-2.88c1.79,0.2,2.69,0.3,4.47,0.54c0.2,1.19,0.31,1.78,0.51,2.97c-0.79-0.12-1.19-0.17-1.97-0.29
							c-0.07-0.01-0.1,0.09-0.07,0.29c0.29,1.76,0.43,2.65,0.71,4.42c0.05,0.35,0.12,0.47,0.23,0.49c3.69,0.62,5.52,0.99,9.18,1.82
							c0.14,0.03,0.18-0.07,0.11-0.42C133.31,80.62,133.13,79.71,132.78,77.91z"/>
					</g>
					<g>
						<defs>
							<path id="SVGID_31_" d="M131.65,75.77c-0.11-0.53-0.24-0.61-0.38-0.63c-0.82-0.15-1.22-0.23-2.04-0.37
								c-0.83-4.29-1.25-6.43-2.12-10.72c0.8,0.08,1.19,0.11,1.99,0.2c0.12,0.02,0.07-0.36,0.02-0.56
								c-0.35-1.66-0.53-2.49-0.89-4.15c-0.08-0.38-0.21-0.59-0.3-0.59c-3.24-0.18-4.87-0.26-8.12-0.39
								c-0.14-0.01-0.13,0.29-0.09,0.53c0.29,1.64,0.43,2.45,0.71,4.09c0.05,0.24,0.12,0.33,0.21,0.34c0.73,0.05,1.1,0.08,1.82,0.14
								c0.21,1.16,0.32,1.73,0.53,2.88c-1.75-0.17-2.62-0.26-4.37-0.4c-0.18-1.12-0.27-1.68-0.45-2.8c0.69,0.05,1.04,0.07,1.73,0.12
								c0.14,0.01,0.21-0.07,0.17-0.34c-0.29-1.67-0.43-2.5-0.72-4.16c-0.05-0.25-0.12-0.44-0.23-0.44
								c-3.3-0.13-4.94-0.18-8.24-0.26c-0.06,0-0.08,0.18-0.05,0.36c0.19,1.56,0.29,2.34,0.47,3.9c0.04,0.34,0.11,0.44,0.19,0.44
								c0.84,0.04,1.26,0.06,2.09,0.1c0.2,1.46,0.35,2.66,0.5,3.78c-0.85-0.06-1.28-0.08-2.13-0.14c0.97,1,1.46,1.52,2.45,2.53
								c0.14,1.07,0.29,2.21,0.47,3.6c-0.89-0.08-1.34-0.13-2.22-0.2c-0.06-0.01-0.08,0.17-0.07,0.3c0.2,1.7,0.29,2.54,0.49,4.24
								c0.03,0.26,0.1,0.37,0.15,0.37c3.72,0.38,5.59,0.62,9.3,1.22c0.07,0.01,0.13-0.08,0.1-0.27c-0.29-1.84-0.44-2.76-0.74-4.6
								c-0.03-0.17-0.08-0.28-0.14-0.29c-0.8-0.11-1.19-0.16-1.99-0.26c-0.18-1.16-0.26-1.73-0.44-2.88
								c1.79,0.19,2.69,0.29,4.49,0.53c0.21,1.19,0.32,1.78,0.52,2.97c-0.8-0.11-1.19-0.17-1.98-0.28c-0.07-0.01-0.1,0.09-0.07,0.29
								c0.29,1.76,0.44,2.65,0.72,4.42c0.06,0.35,0.12,0.47,0.23,0.49c3.7,0.61,5.55,0.98,9.23,1.8c0.14,0.03,0.18-0.07,0.11-0.42
								C132.19,78.47,132.01,77.57,131.65,75.77z"/>
						</defs>
						<clipPath id="SVGID_32_">
							<use xlink:href="#SVGID_31_"  style="overflow:visible;"/>
						</clipPath>
						<path class="st26" d="M181.11,81.31c-26.15-8.27-54.59-15.76-81.9-15.79c-26.99-0.02-55.23,7.54-81.06,15.79
							c-1.23-8.27-2.45-16.55-3.69-24.82c56.78-9.07,113.55-9.07,170.33,0C183.56,64.77,182.33,73.04,181.11,81.31z"/>
					</g>
				</g>
				<g>
					<g>
						<defs>
							<path id="SVGID_33_" d="M148.35,75.34c-0.11-0.48-0.2-0.66-0.26-0.68c-1.34-0.33-2.02-0.48-3.38-0.79
								c-0.15-0.03-0.09,0.32-0.02,0.62c0.38,1.61,0.57,2.42,0.95,4.05c-2.2-0.59-3.31-0.87-5.52-1.4c-0.29-1.27-0.43-1.9-0.71-3.17
								c1.16,0.24,1.75,0.37,2.91,0.63c0.11,0.02,0.21-0.02,0.15-0.27c-0.47-2.03-0.71-3.05-1.19-5.08
								c-0.06-0.26-0.11-0.33-0.2-0.35c-1.17-0.2-1.76-0.29-2.93-0.48c-0.28-1.19-0.41-1.79-0.7-2.98c2.08,0.27,3.12,0.41,5.19,0.72
								c0.41,1.67,0.62,2.5,1.01,4.17c0.05,0.23,0.11,0.24,0.17,0.26c1.25,0.24,1.88,0.37,3.14,0.62c0.09,0.02,0.06-0.22-0.02-0.56
								c-0.96-3.91-1.45-5.87-2.45-9.78c-0.14-0.52-0.24-0.76-0.39-0.77c-5.8-0.52-8.69-0.73-14.5-1.07
								c-0.13-0.01-0.2,0.11-0.16,0.26c0.44,2,0.66,3.01,1.1,5.02c0.08,0.35,0.12,0.3,0.19,0.31c0.82,0.09,1.23,0.14,2.06,0.23
								c0.36,1.6,0.65,2.91,0.92,4.15c-0.83-0.13-1.26-0.19-2.11-0.31c1.07,1.2,1.63,1.82,2.71,3.06c0.28,1.28,0.57,2.64,0.92,4.31
								c-0.86-0.18-1.29-0.27-2.16-0.44c-0.08-0.02-0.1,0.21-0.04,0.47c0.38,1.85,0.57,2.78,0.94,4.65
								c0.07,0.35,0.18,0.35,0.31,0.38c6.61,1.58,9.9,2.54,16.38,4.81c0.18,0.06,0.17-0.17,0.11-0.41
								C149.8,81.44,149.32,79.41,148.35,75.34z"/>
						</defs>
						<clipPath id="SVGID_34_">
							<use xlink:href="#SVGID_33_"  style="overflow:visible;"/>
						</clipPath>
						<path class="st27" d="M149.41,77.52c-0.11-0.48-0.2-0.67-0.26-0.68c-1.34-0.33-2.01-0.49-3.36-0.8
							c-0.15-0.03-0.09,0.32-0.02,0.62c0.38,1.62,0.56,2.42,0.93,4.05c-2.19-0.6-3.3-0.88-5.5-1.41c-0.28-1.27-0.42-1.91-0.7-3.17
							c1.16,0.25,1.74,0.38,2.9,0.64c0.11,0.02,0.21-0.02,0.15-0.27c-0.47-2.03-0.7-3.05-1.18-5.08c-0.06-0.26-0.11-0.33-0.2-0.35
							c-1.16-0.2-1.75-0.3-2.92-0.49c-0.27-1.19-0.41-1.79-0.69-2.98c2.07,0.28,3.1,0.42,5.16,0.74c0.41,1.67,0.6,2.51,1,4.17
							c0.05,0.23,0.11,0.24,0.17,0.26c1.25,0.25,1.88,0.37,3.12,0.63c0.09,0.02,0.06-0.22-0.02-0.56c-0.95-3.92-1.43-5.88-2.42-9.79
							c-0.13-0.52-0.23-0.76-0.39-0.77c-5.77-0.53-8.66-0.75-14.44-1.11c-0.13-0.01-0.2,0.11-0.16,0.26
							c0.44,2.01,0.65,3.01,1.08,5.02c0.08,0.35,0.12,0.3,0.19,0.31c0.82,0.09,1.23,0.14,2.04,0.23c0.35,1.6,0.64,2.91,0.9,4.15
							c-0.83-0.13-1.26-0.2-2.1-0.32c1.07,1.2,1.61,1.83,2.69,3.07c0.27,1.28,0.56,2.64,0.91,4.31c-0.86-0.18-1.29-0.27-2.15-0.44
							c-0.08-0.02-0.1,0.21-0.05,0.47c0.38,1.85,0.56,2.78,0.92,4.65c0.07,0.35,0.18,0.35,0.31,0.38c6.59,1.58,9.86,2.56,16.3,4.85
							c0.18,0.07,0.17-0.17,0.11-0.41C150.84,83.63,150.37,81.59,149.41,77.52z"/>
					</g>
					<g>
						<defs>
							<path id="SVGID_35_" d="M148.35,75.34c-0.11-0.48-0.2-0.66-0.26-0.68c-1.34-0.33-2.02-0.48-3.38-0.79
								c-0.15-0.03-0.09,0.32-0.02,0.62c0.38,1.61,0.57,2.42,0.95,4.05c-2.2-0.59-3.31-0.87-5.52-1.4c-0.29-1.27-0.43-1.9-0.71-3.17
								c1.16,0.24,1.75,0.37,2.91,0.63c0.11,0.02,0.21-0.02,0.15-0.27c-0.47-2.03-0.71-3.05-1.19-5.08
								c-0.06-0.26-0.11-0.33-0.2-0.35c-1.17-0.2-1.76-0.29-2.93-0.48c-0.28-1.19-0.41-1.79-0.7-2.98c2.08,0.27,3.12,0.41,5.19,0.72
								c0.41,1.67,0.62,2.5,1.01,4.17c0.05,0.23,0.11,0.24,0.17,0.26c1.25,0.24,1.88,0.37,3.14,0.62c0.09,0.02,0.06-0.22-0.02-0.56
								c-0.96-3.91-1.45-5.87-2.45-9.78c-0.14-0.52-0.24-0.76-0.39-0.77c-5.8-0.52-8.69-0.73-14.5-1.07
								c-0.13-0.01-0.2,0.11-0.16,0.26c0.44,2,0.66,3.01,1.1,5.02c0.08,0.35,0.12,0.3,0.19,0.31c0.82,0.09,1.23,0.14,2.06,0.23
								c0.36,1.6,0.65,2.91,0.92,4.15c-0.83-0.13-1.26-0.19-2.11-0.31c1.07,1.2,1.63,1.82,2.71,3.06c0.28,1.28,0.57,2.64,0.92,4.31
								c-0.86-0.18-1.29-0.27-2.16-0.44c-0.08-0.02-0.1,0.21-0.04,0.47c0.38,1.85,0.57,2.78,0.94,4.65
								c0.07,0.35,0.18,0.35,0.31,0.38c6.61,1.58,9.9,2.54,16.38,4.81c0.18,0.06,0.17-0.17,0.11-0.41
								C149.8,81.44,149.32,79.41,148.35,75.34z"/>
						</defs>
						<clipPath id="SVGID_36_">
							<use xlink:href="#SVGID_35_"  style="overflow:visible;"/>
						</clipPath>
						<path class="st28" d="M181.11,81.31c-26.15-8.27-54.59-15.76-81.9-15.79c-26.99-0.02-55.23,7.54-81.06,15.79
							c-1.23-8.27-2.45-16.55-3.69-24.82c56.78-9.07,113.55-9.07,170.33,0C183.56,64.77,182.33,73.04,181.11,81.31z"/>
					</g>
				</g>
				<g>
					<g>
						<defs>
							<path id="SVGID_37_" d="M94.26,58.16c-2.49,0.02-3.75,0.05-6.24,0.11c-0.06,0-0.14,0.26-0.15,0.56
								c-0.08,1.54-0.11,2.31-0.19,3.85c-0.01,0.2,0.06,0.32,0.2,0.32c0.8-0.03,1.19-0.04,1.99-0.06c-0.08,2.57-0.13,3.85-0.21,6.42
								c-1.81-4.26-2.64-6.39-4.14-10.71c-0.08-0.17-0.17-0.3-0.25-0.29c-3.1,0.09-4.65,0.14-7.76,0.29
								c-0.13,0.01-0.23,0.14-0.27,0.4c-0.2,1.63-0.3,2.45-0.5,4.08c-0.05,0.39,0.03,0.47,0.1,0.46c0.81-0.06,1.22-0.08,2.03-0.14
								c-0.42,3.84-0.62,5.77-1.02,9.6c-0.83,0.09-1.25,0.14-2.09,0.23c-0.2,0.02-0.27,0.29-0.29,0.5
								c-0.18,1.58-0.28,2.36-0.46,3.94c-0.04,0.34-0.01,0.52,0.09,0.5c2.88-0.4,4.33-0.56,7.22-0.82c0.12-0.01,0.21-0.2,0.24-0.58
								c0.11-1.54,0.17-2.3,0.29-3.84c0.02-0.26-0.1-0.37-0.21-0.36c-0.89,0.07-1.34,0.11-2.22,0.19c0.27-3.01,0.41-4.52,0.68-7.53
								c1.61,4.74,2.51,7.06,4.49,11.69c0.06,0.14,0.17,0.17,0.24,0.16c2.45-0.17,3.68-0.23,6.13-0.31c0.13,0,0.18-0.26,0.19-0.68
								c0.08-5.29,0.11-7.94,0.2-13.24c0.77-0.02,1.16-0.02,1.93-0.03c0.12,0,0.21-0.13,0.21-0.45c0-1.45,0-2.17,0-3.62
								C94.46,58.53,94.42,58.16,94.26,58.16z"/>
						</defs>
						<clipPath id="SVGID_38_">
							<use xlink:href="#SVGID_37_"  style="overflow:visible;"/>
						</clipPath>
						<path class="st29" d="M95.56,60.22c-2.48,0.02-3.73,0.04-6.22,0.09c-0.06,0-0.14,0.26-0.15,0.56
							c-0.08,1.54-0.12,2.31-0.2,3.85c-0.01,0.2,0.05,0.32,0.2,0.32c0.8-0.02,1.19-0.04,1.98-0.05c-0.09,2.57-0.14,3.85-0.23,6.42
							c-1.79-4.26-2.61-6.4-4.11-10.73c-0.08-0.17-0.17-0.3-0.25-0.29c-3.09,0.08-4.64,0.14-7.73,0.26
							c-0.13,0.01-0.23,0.14-0.27,0.4c-0.2,1.63-0.31,2.44-0.51,4.07c-0.05,0.39,0.03,0.47,0.1,0.46c0.8-0.05,1.21-0.08,2.02-0.13
							c-0.42,3.84-0.63,5.76-1.04,9.6c-0.83,0.08-1.25,0.13-2.08,0.23c-0.2,0.02-0.27,0.29-0.29,0.5c-0.19,1.58-0.28,2.36-0.46,3.94
							c-0.04,0.34-0.01,0.52,0.09,0.5c2.88-0.38,4.32-0.55,7.2-0.8c0.12-0.01,0.21-0.2,0.24-0.58c0.11-1.54,0.17-2.3,0.29-3.84
							c0.02-0.26-0.1-0.37-0.21-0.36c-0.89,0.07-1.33,0.11-2.21,0.18c0.27-3.01,0.41-4.52,0.7-7.53c1.6,4.74,2.49,7.07,4.45,11.7
							c0.06,0.14,0.17,0.17,0.24,0.16c2.44-0.17,3.66-0.22,6.1-0.29c0.13,0,0.18-0.26,0.19-0.68c0.08-5.3,0.13-7.94,0.23-13.24
							c0.77-0.02,1.16-0.02,1.92-0.02c0.12,0,0.21-0.13,0.21-0.45c0-1.45,0-2.17,0.01-3.62C95.76,60.59,95.72,60.21,95.56,60.22z"/>
					</g>
					<g>
						<defs>
							<path id="SVGID_39_" d="M94.26,58.16c-2.49,0.02-3.75,0.05-6.24,0.11c-0.06,0-0.14,0.26-0.15,0.56
								c-0.08,1.54-0.11,2.31-0.19,3.85c-0.01,0.2,0.06,0.32,0.2,0.32c0.8-0.03,1.19-0.04,1.99-0.06c-0.08,2.57-0.13,3.85-0.21,6.42
								c-1.81-4.26-2.64-6.39-4.14-10.71c-0.08-0.17-0.17-0.3-0.25-0.29c-3.1,0.09-4.65,0.14-7.76,0.29
								c-0.13,0.01-0.23,0.14-0.27,0.4c-0.2,1.63-0.3,2.45-0.5,4.08c-0.05,0.39,0.03,0.47,0.1,0.46c0.81-0.06,1.22-0.08,2.03-0.14
								c-0.42,3.84-0.62,5.77-1.02,9.6c-0.83,0.09-1.25,0.14-2.09,0.23c-0.2,0.02-0.27,0.29-0.29,0.5
								c-0.18,1.58-0.28,2.36-0.46,3.94c-0.04,0.34-0.01,0.52,0.09,0.5c2.88-0.4,4.33-0.56,7.22-0.82c0.12-0.01,0.21-0.2,0.24-0.58
								c0.11-1.54,0.17-2.3,0.29-3.84c0.02-0.26-0.1-0.37-0.21-0.36c-0.89,0.07-1.34,0.11-2.22,0.19c0.27-3.01,0.41-4.52,0.68-7.53
								c1.61,4.74,2.51,7.06,4.49,11.69c0.06,0.14,0.17,0.17,0.24,0.16c2.45-0.17,3.68-0.23,6.13-0.31c0.13,0,0.18-0.26,0.19-0.68
								c0.08-5.29,0.11-7.94,0.2-13.24c0.77-0.02,1.16-0.02,1.93-0.03c0.12,0,0.21-0.13,0.21-0.45c0-1.45,0-2.17,0-3.62
								C94.46,58.53,94.42,58.16,94.26,58.16z"/>
						</defs>
						<clipPath id="SVGID_40_">
							<use xlink:href="#SVGID_39_"  style="overflow:visible;"/>
						</clipPath>
						<path class="st30" d="M181.11,81.31c-26.15-8.27-54.59-15.76-81.9-15.79c-26.99-0.02-55.23,7.54-81.06,15.79
							c-1.23-8.27-2.45-16.55-3.69-24.82c56.78-9.07,113.55-9.07,170.33,0C183.56,64.77,182.33,73.04,181.11,81.31z"/>
					</g>
				</g>
				<g>
					<g>
						<defs>
							<path id="SVGID_41_" d="M168.13,92.19c-1.64-7.48-3.39-14.96-5.26-22.4c0.75,0.17,1.13,0.25,1.88,0.41
								c0.11,0.02,0.15-0.17,0.02-0.73c-0.62-2.51-0.94-3.77-1.58-6.28c-0.11-0.43-0.31-1.08-0.47-1.1
								c-2.48-0.32-3.72-0.47-6.21-0.74c-0.06-0.01-0.02,0.38,0.11,0.86c0.64,2.44,0.95,3.66,1.57,6.1c0.08,0.32,0.2,0.53,0.34,0.56
								c0.78,0.16,1.17,0.24,1.95,0.4c1.05,4.2,1.57,6.3,2.57,10.5c-2.81-6.14-5.78-12.24-8.89-18.24c-0.16-0.28-0.3-0.48-0.39-0.49
								c-3.09-0.34-4.64-0.49-7.74-0.77c-0.13-0.02-0.17,0.16-0.08,0.5c0.56,2.18,0.84,3.27,1.39,5.45
								c0.14,0.53,0.25,0.65,0.31,0.65c0.8,0.14,1.2,0.2,2,0.34c1.34,5.33,2,7.99,3.26,13.32c-0.81-0.25-1.21-0.38-2.02-0.62
								c-0.19-0.05-0.15,0.28-0.08,0.56c0.5,2.11,0.74,3.17,1.22,5.28c0.11,0.46,0.21,0.72,0.3,0.75c2.77,1.01,4.15,1.55,6.89,2.68
								c0.11,0.05,0.13-0.19,0-0.76c-0.53-2.3-0.8-3.45-1.34-5.76c-0.09-0.38-0.26-0.61-0.37-0.65c-0.86-0.29-1.28-0.44-2.14-0.71
								c-1.03-4.35-1.55-6.52-2.64-10.86c3.33,6.49,6.49,13.1,9.48,19.76c0.12,0.26,0.23,0.35,0.29,0.38
								c2.3,1.01,3.44,1.54,5.71,2.63C168.33,93.3,168.29,92.9,168.13,92.19z"/>
						</defs>
						<clipPath id="SVGID_42_">
							<use xlink:href="#SVGID_41_"  style="overflow:visible;"/>
						</clipPath>
						<path class="st31" d="M169.07,94.41c-1.62-7.48-3.34-14.97-5.18-22.41c0.75,0.17,1.13,0.25,1.88,0.42
							c0.11,0.02,0.15-0.17,0.02-0.73c-0.62-2.51-0.92-3.77-1.55-6.28c-0.11-0.43-0.31-1.08-0.47-1.1
							c-2.47-0.32-3.71-0.47-6.19-0.76c-0.06-0.01-0.02,0.38,0.11,0.86c0.63,2.44,0.94,3.66,1.55,6.11c0.08,0.32,0.2,0.53,0.33,0.56
							c0.78,0.16,1.16,0.24,1.94,0.41c1.04,4.2,1.55,6.31,2.53,10.51c-2.78-6.15-5.73-12.25-8.81-18.26
							c-0.16-0.28-0.3-0.48-0.39-0.5c-3.08-0.34-4.62-0.5-7.71-0.8c-0.13-0.02-0.17,0.16-0.08,0.5c0.56,2.18,0.83,3.27,1.37,5.45
							c0.13,0.53,0.25,0.65,0.31,0.65c0.8,0.14,1.19,0.2,1.99,0.34c1.33,5.33,1.97,7.99,3.21,13.33c-0.8-0.26-1.21-0.38-2.01-0.62
							c-0.19-0.05-0.15,0.28-0.09,0.56c0.49,2.12,0.73,3.17,1.21,5.28c0.11,0.46,0.2,0.72,0.3,0.75c2.76,1.01,4.14,1.55,6.86,2.69
							c0.11,0.05,0.13-0.19,0-0.76c-0.52-2.3-0.78-3.45-1.31-5.76c-0.09-0.38-0.25-0.61-0.36-0.65c-0.85-0.29-1.28-0.44-2.13-0.71
							c-1.01-4.35-1.53-6.52-2.6-10.87c3.3,6.5,6.44,13.11,9.4,19.78c0.12,0.26,0.23,0.35,0.29,0.38c2.28,1.01,3.42,1.55,5.68,2.65
							C169.28,95.52,169.23,95.13,169.07,94.41z"/>
					</g>
					<g>
						<defs>
							<path id="SVGID_43_" d="M168.13,92.19c-1.64-7.48-3.39-14.96-5.26-22.4c0.75,0.17,1.13,0.25,1.88,0.41
								c0.11,0.02,0.15-0.17,0.02-0.73c-0.62-2.51-0.94-3.77-1.58-6.28c-0.11-0.43-0.31-1.08-0.47-1.1
								c-2.48-0.32-3.72-0.47-6.21-0.74c-0.06-0.01-0.02,0.38,0.11,0.86c0.64,2.44,0.95,3.66,1.57,6.1c0.08,0.32,0.2,0.53,0.34,0.56
								c0.78,0.16,1.17,0.24,1.95,0.4c1.05,4.2,1.57,6.3,2.57,10.5c-2.81-6.14-5.78-12.24-8.89-18.24c-0.16-0.28-0.3-0.48-0.39-0.49
								c-3.09-0.34-4.64-0.49-7.74-0.77c-0.13-0.02-0.17,0.16-0.08,0.5c0.56,2.18,0.84,3.27,1.39,5.45
								c0.14,0.53,0.25,0.65,0.31,0.65c0.8,0.14,1.2,0.2,2,0.34c1.34,5.33,2,7.99,3.26,13.32c-0.81-0.25-1.21-0.38-2.02-0.62
								c-0.19-0.05-0.15,0.28-0.08,0.56c0.5,2.11,0.74,3.17,1.22,5.28c0.11,0.46,0.21,0.72,0.3,0.75c2.77,1.01,4.15,1.55,6.89,2.68
								c0.11,0.05,0.13-0.19,0-0.76c-0.53-2.3-0.8-3.45-1.34-5.76c-0.09-0.38-0.26-0.61-0.37-0.65c-0.86-0.29-1.28-0.44-2.14-0.71
								c-1.03-4.35-1.55-6.52-2.64-10.86c3.33,6.49,6.49,13.1,9.48,19.76c0.12,0.26,0.23,0.35,0.29,0.38
								c2.3,1.01,3.44,1.54,5.71,2.63C168.33,93.3,168.29,92.9,168.13,92.19z"/>
						</defs>
						<clipPath id="SVGID_44_">
							<use xlink:href="#SVGID_43_"  style="overflow:visible;"/>
						</clipPath>
						<path class="st32" d="M181.11,81.31c-26.15-8.27-54.59-15.76-81.9-15.79c-26.99-0.02-55.23,7.54-81.06,15.79
							c-1.23-8.27-2.45-16.55-3.69-24.82c56.78-9.07,113.55-9.07,170.33,0C183.56,64.77,182.33,73.04,181.11,81.31z"/>
					</g>
				</g>
			</g>
		</g>
	</g>
</g>
</svg>
